{
  "header": {
    "PPQ": 480,
    "timeSignature": [
      4,
      4
    ],
    "bpm": 80
  },
  "tracks": [
    {
      "name": "untitled",
      "notes": [],
      "controlChanges": {},
      "instrumentNumber": -1
    },
    {
      "name": "Solo Cello",
      "notes": [
        {
          "name": "G2",
          "midi": 43,
          "time": 0,
          "velocity": 0.7874015748031497,
          "duration": 0.1875
        },
        {
          "name": "D3",
          "midi": 50,
          "time": 0.1875,
          "velocity": 0.7874015748031497,
          "duration": 0.1875
        },
        {
          "name": "B3",
          "midi": 59,
          "time": 0.375,
          "velocity": 0.7874015748031497,
          "duration": 0.1875
        },
        {
          "name": "A3",
          "midi": 57,
          "time": 0.5625,
          "velocity": 0.7874015748031497,
          "duration": 0.1875
        },
        {
          "name": "B3",
          "midi": 59,
          "time": 0.75,
          "velocity": 0.7874015748031497,
          "duration": 0.1875
        },
        {
          "name": "D3",
          "midi": 50,
          "time": 0.9375,
          "velocity": 0.7874015748031497,
          "duration": 0.1875
        },
        {
          "name": "B3",
          "midi": 59,
          "time": 1.125,
          "velocity": 0.7874015748031497,
          "duration": 0.1875
        },
        {
          "name": "D3",
          "midi": 50,
          "time": 1.3125,
          "velocity": 0.7874015748031497,
          "duration": 0.1875
        },
        {
          "name": "G2",
          "midi": 43,
          "time": 1.5,
          "velocity": 0.7874015748031497,
          "duration": 0.1875
        },
        {
          "name": "D3",
          "midi": 50,
          "time": 1.6875,
          "velocity": 0.7874015748031497,
          "duration": 0.1875
        },
        {
          "name": "B3",
          "midi": 59,
          "time": 1.875,
          "velocity": 0.7874015748031497,
          "duration": 0.1875
        },
        {
          "name": "A3",
          "midi": 57,
          "time": 2.0625,
          "velocity": 0.7874015748031497,
          "duration": 0.1875
        },
        {
          "name": "B3",
          "midi": 59,
          "time": 2.25,
          "velocity": 0.7874015748031497,
          "duration": 0.1875
        },
        {
          "name": "D3",
          "midi": 50,
          "time": 2.4375,
          "velocity": 0.7874015748031497,
          "duration": 0.1875
        },
        {
          "name": "B3",
          "midi": 59,
          "time": 2.625,
          "velocity": 0.7874015748031497,
          "duration": 0.1875
        },
        {
          "name": "D3",
          "midi": 50,
          "time": 2.8125,
          "velocity": 0.7874015748031497,
          "duration": 0.1875
        },
        {
          "name": "G2",
          "midi": 43,
          "time": 3,
          "velocity": 0.7874015748031497,
          "duration": 0.1875
        },
        {
          "name": "E3",
          "midi": 52,
          "time": 3.1875,
          "velocity": 0.7874015748031497,
          "duration": 0.1875
        },
        {
          "name": "C4",
          "midi": 60,
          "time": 3.375,
          "velocity": 0.7874015748031497,
          "duration": 0.1875
        },
        {
          "name": "B3",
          "midi": 59,
          "time": 3.5625,
          "velocity": 0.7874015748031497,
          "duration": 0.1875
        },
        {
          "name": "C4",
          "midi": 60,
          "time": 3.75,
          "velocity": 0.7874015748031497,
          "duration": 0.1875
        },
        {
          "name": "E3",
          "midi": 52,
          "time": 3.9375,
          "velocity": 0.7874015748031497,
          "duration": 0.1875
        },
        {
          "name": "C4",
          "midi": 60,
          "time": 4.125,
          "velocity": 0.7874015748031497,
          "duration": 0.1875
        },
        {
          "name": "E3",
          "midi": 52,
          "time": 4.3125,
          "velocity": 0.7874015748031497,
          "duration": 0.1875
        },
        {
          "name": "G2",
          "midi": 43,
          "time": 4.5,
          "velocity": 0.7874015748031497,
          "duration": 0.1875
        },
        {
          "name": "E3",
          "midi": 52,
          "time": 4.6875,
          "velocity": 0.7874015748031497,
          "duration": 0.1875
        },
        {
          "name": "C4",
          "midi": 60,
          "time": 4.875,
          "velocity": 0.7874015748031497,
          "duration": 0.1875
        },
        {
          "name": "B3",
          "midi": 59,
          "time": 5.0625,
          "velocity": 0.7874015748031497,
          "duration": 0.1875
        },
        {
          "name": "C4",
          "midi": 60,
          "time": 5.25,
          "velocity": 0.7874015748031497,
          "duration": 0.1875
        },
        {
          "name": "E3",
          "midi": 52,
          "time": 5.4375,
          "velocity": 0.7874015748031497,
          "duration": 0.1875
        },
        {
          "name": "C4",
          "midi": 60,
          "time": 5.625,
          "velocity": 0.7874015748031497,
          "duration": 0.1875
        },
        {
          "name": "E3",
          "midi": 52,
          "time": 5.8125,
          "velocity": 0.7874015748031497,
          "duration": 0.1875
        },
        {
          "name": "G2",
          "midi": 43,
          "time": 6,
          "velocity": 0.7874015748031497,
          "duration": 0.1875
        },
        {
          "name": "F#3",
          "midi": 54,
          "time": 6.1875,
          "velocity": 0.7874015748031497,
          "duration": 0.1875
        },
        {
          "name": "C4",
          "midi": 60,
          "time": 6.375,
          "velocity": 0.7874015748031497,
          "duration": 0.1875
        },
        {
          "name": "B3",
          "midi": 59,
          "time": 6.5625,
          "velocity": 0.7874015748031497,
          "duration": 0.1875
        },
        {
          "name": "C4",
          "midi": 60,
          "time": 6.75,
          "velocity": 0.7874015748031497,
          "duration": 0.1875
        },
        {
          "name": "F#3",
          "midi": 54,
          "time": 6.9375,
          "velocity": 0.7874015748031497,
          "duration": 0.1875
        },
        {
          "name": "C4",
          "midi": 60,
          "time": 7.125,
          "velocity": 0.7874015748031497,
          "duration": 0.1875
        },
        {
          "name": "F#3",
          "midi": 54,
          "time": 7.3125,
          "velocity": 0.7874015748031497,
          "duration": 0.1875
        },
        {
          "name": "G2",
          "midi": 43,
          "time": 7.5,
          "velocity": 0.7874015748031497,
          "duration": 0.1875
        },
        {
          "name": "F#3",
          "midi": 54,
          "time": 7.6875,
          "velocity": 0.7874015748031497,
          "duration": 0.1875
        },
        {
          "name": "C4",
          "midi": 60,
          "time": 7.875,
          "velocity": 0.7874015748031497,
          "duration": 0.1875
        },
        {
          "name": "B3",
          "midi": 59,
          "time": 8.0625,
          "velocity": 0.7874015748031497,
          "duration": 0.1875
        },
        {
          "name": "C4",
          "midi": 60,
          "time": 8.25,
          "velocity": 0.7874015748031497,
          "duration": 0.1875
        },
        {
          "name": "F#3",
          "midi": 54,
          "time": 8.4375,
          "velocity": 0.7874015748031497,
          "duration": 0.1875
        },
        {
          "name": "C4",
          "midi": 60,
          "time": 8.625,
          "velocity": 0.7874015748031497,
          "duration": 0.1875
        },
        {
          "name": "F#3",
          "midi": 54,
          "time": 8.8125,
          "velocity": 0.7874015748031497,
          "duration": 0.1875
        },
        {
          "name": "G2",
          "midi": 43,
          "time": 9,
          "velocity": 0.7874015748031497,
          "duration": 0.1875
        },
        {
          "name": "G3",
          "midi": 55,
          "time": 9.1875,
          "velocity": 0.7874015748031497,
          "duration": 0.1875
        },
        {
          "name": "B3",
          "midi": 59,
          "time": 9.375,
          "velocity": 0.7874015748031497,
          "duration": 0.1875
        },
        {
          "name": "A3",
          "midi": 57,
          "time": 9.5625,
          "velocity": 0.7874015748031497,
          "duration": 0.1875
        },
        {
          "name": "B3",
          "midi": 59,
          "time": 9.75,
          "velocity": 0.7874015748031497,
          "duration": 0.1875
        },
        {
          "name": "G3",
          "midi": 55,
          "time": 9.9375,
          "velocity": 0.7874015748031497,
          "duration": 0.1875
        },
        {
          "name": "B3",
          "midi": 59,
          "time": 10.125,
          "velocity": 0.7874015748031497,
          "duration": 0.1875
        },
        {
          "name": "G3",
          "midi": 55,
          "time": 10.3125,
          "velocity": 0.7874015748031497,
          "duration": 0.1875
        },
        {
          "name": "G2",
          "midi": 43,
          "time": 10.5,
          "velocity": 0.7874015748031497,
          "duration": 0.1875
        },
        {
          "name": "G3",
          "midi": 55,
          "time": 10.6875,
          "velocity": 0.7874015748031497,
          "duration": 0.1875
        },
        {
          "name": "B3",
          "midi": 59,
          "time": 10.875,
          "velocity": 0.7874015748031497,
          "duration": 0.1875
        },
        {
          "name": "A3",
          "midi": 57,
          "time": 11.0625,
          "velocity": 0.7874015748031497,
          "duration": 0.1875
        },
        {
          "name": "B3",
          "midi": 59,
          "time": 11.25,
          "velocity": 0.7874015748031497,
          "duration": 0.1875
        },
        {
          "name": "G3",
          "midi": 55,
          "time": 11.4375,
          "velocity": 0.7874015748031497,
          "duration": 0.1875
        },
        {
          "name": "B3",
          "midi": 59,
          "time": 11.625,
          "velocity": 0.7874015748031497,
          "duration": 0.1875
        },
        {
          "name": "F#3",
          "midi": 54,
          "time": 11.8125,
          "velocity": 0.7874015748031497,
          "duration": 0.1875
        },
        {
          "name": "G2",
          "midi": 43,
          "time": 12,
          "velocity": 0.7874015748031497,
          "duration": 0.1875
        },
        {
          "name": "E3",
          "midi": 52,
          "time": 12.1875,
          "velocity": 0.7874015748031497,
          "duration": 0.1875
        },
        {
          "name": "B3",
          "midi": 59,
          "time": 12.375,
          "velocity": 0.7874015748031497,
          "duration": 0.1875
        },
        {
          "name": "A3",
          "midi": 57,
          "time": 12.5625,
          "velocity": 0.7874015748031497,
          "duration": 0.1875
        },
        {
          "name": "B3",
          "midi": 59,
          "time": 12.75,
          "velocity": 0.7874015748031497,
          "duration": 0.1875
        },
        {
          "name": "G3",
          "midi": 55,
          "time": 12.9375,
          "velocity": 0.7874015748031497,
          "duration": 0.1875
        },
        {
          "name": "F#3",
          "midi": 54,
          "time": 13.125,
          "velocity": 0.7874015748031497,
          "duration": 0.1875
        },
        {
          "name": "G3",
          "midi": 55,
          "time": 13.3125,
          "velocity": 0.7874015748031497,
          "duration": 0.1875
        },
        {
          "name": "E3",
          "midi": 52,
          "time": 13.5,
          "velocity": 0.7874015748031497,
          "duration": 0.1875
        },
        {
          "name": "G3",
          "midi": 55,
          "time": 13.6875,
          "velocity": 0.7874015748031497,
          "duration": 0.1875
        },
        {
          "name": "F#3",
          "midi": 54,
          "time": 13.875,
          "velocity": 0.7874015748031497,
          "duration": 0.1875
        },
        {
          "name": "G3",
          "midi": 55,
          "time": 14.0625,
          "velocity": 0.7874015748031497,
          "duration": 0.1875
        },
        {
          "name": "B2",
          "midi": 47,
          "time": 14.25,
          "velocity": 0.7874015748031497,
          "duration": 0.1875
        },
        {
          "name": "D3",
          "midi": 50,
          "time": 14.4375,
          "velocity": 0.7874015748031497,
          "duration": 0.1875
        },
        {
          "name": "C#3",
          "midi": 49,
          "time": 14.625,
          "velocity": 0.7874015748031497,
          "duration": 0.1875
        },
        {
          "name": "B2",
          "midi": 47,
          "time": 14.8125,
          "velocity": 0.7874015748031497,
          "duration": 0.1875
        },
        {
          "name": "C#3",
          "midi": 49,
          "time": 15,
          "velocity": 0.7874015748031497,
          "duration": 0.1875
        },
        {
          "name": "G3",
          "midi": 55,
          "time": 15.1875,
          "velocity": 0.7874015748031497,
          "duration": 0.1875
        },
        {
          "name": "A3",
          "midi": 57,
          "time": 15.375,
          "velocity": 0.7874015748031497,
          "duration": 0.1875
        },
        {
          "name": "G3",
          "midi": 55,
          "time": 15.5625,
          "velocity": 0.7874015748031497,
          "duration": 0.1875
        },
        {
          "name": "A3",
          "midi": 57,
          "time": 15.75,
          "velocity": 0.7874015748031497,
          "duration": 0.1875
        },
        {
          "name": "G3",
          "midi": 55,
          "time": 15.9375,
          "velocity": 0.7874015748031497,
          "duration": 0.1875
        },
        {
          "name": "A3",
          "midi": 57,
          "time": 16.125,
          "velocity": 0.7874015748031497,
          "duration": 0.1875
        },
        {
          "name": "G3",
          "midi": 55,
          "time": 16.3125,
          "velocity": 0.7874015748031497,
          "duration": 0.1875
        },
        {
          "name": "C#3",
          "midi": 49,
          "time": 16.5,
          "velocity": 0.7874015748031497,
          "duration": 0.1875
        },
        {
          "name": "G3",
          "midi": 55,
          "time": 16.6875,
          "velocity": 0.7874015748031497,
          "duration": 0.1875
        },
        {
          "name": "A3",
          "midi": 57,
          "time": 16.875,
          "velocity": 0.7874015748031497,
          "duration": 0.1875
        },
        {
          "name": "G3",
          "midi": 55,
          "time": 17.0625,
          "velocity": 0.7874015748031497,
          "duration": 0.1875
        },
        {
          "name": "A3",
          "midi": 57,
          "time": 17.25,
          "velocity": 0.7874015748031497,
          "duration": 0.1875
        },
        {
          "name": "G3",
          "midi": 55,
          "time": 17.4375,
          "velocity": 0.7874015748031497,
          "duration": 0.1875
        },
        {
          "name": "A3",
          "midi": 57,
          "time": 17.625,
          "velocity": 0.7874015748031497,
          "duration": 0.1875
        },
        {
          "name": "G3",
          "midi": 55,
          "time": 17.8125,
          "velocity": 0.7874015748031497,
          "duration": 0.1875
        },
        {
          "name": "F#3",
          "midi": 54,
          "time": 18,
          "velocity": 0.7874015748031497,
          "duration": 0.1875
        },
        {
          "name": "A3",
          "midi": 57,
          "time": 18.1875,
          "velocity": 0.7874015748031497,
          "duration": 0.1875
        },
        {
          "name": "D4",
          "midi": 62,
          "time": 18.375,
          "velocity": 0.7874015748031497,
          "duration": 0.1875
        },
        {
          "name": "C#4",
          "midi": 61,
          "time": 18.5625,
          "velocity": 0.7874015748031497,
          "duration": 0.1875
        },
        {
          "name": "D4",
          "midi": 62,
          "time": 18.75,
          "velocity": 0.7874015748031497,
          "duration": 0.1875
        },
        {
          "name": "A3",
          "midi": 57,
          "time": 18.9375,
          "velocity": 0.7874015748031497,
          "duration": 0.1875
        },
        {
          "name": "G3",
          "midi": 55,
          "time": 19.125,
          "velocity": 0.7874015748031497,
          "duration": 0.1875
        },
        {
          "name": "A3",
          "midi": 57,
          "time": 19.3125,
          "velocity": 0.7874015748031497,
          "duration": 0.1875
        },
        {
          "name": "F#3",
          "midi": 54,
          "time": 19.5,
          "velocity": 0.7874015748031497,
          "duration": 0.1875
        },
        {
          "name": "A3",
          "midi": 57,
          "time": 19.6875,
          "velocity": 0.7874015748031497,
          "duration": 0.1875
        },
        {
          "name": "G3",
          "midi": 55,
          "time": 19.875,
          "velocity": 0.7874015748031497,
          "duration": 0.1875
        },
        {
          "name": "A3",
          "midi": 57,
          "time": 20.0625,
          "velocity": 0.7874015748031497,
          "duration": 0.1875
        },
        {
          "name": "D3",
          "midi": 50,
          "time": 20.25,
          "velocity": 0.7874015748031497,
          "duration": 0.1875
        },
        {
          "name": "F#3",
          "midi": 54,
          "time": 20.4375,
          "velocity": 0.7874015748031497,
          "duration": 0.1875
        },
        {
          "name": "E3",
          "midi": 52,
          "time": 20.625,
          "velocity": 0.7874015748031497,
          "duration": 0.1875
        },
        {
          "name": "D3",
          "midi": 50,
          "time": 20.8125,
          "velocity": 0.7874015748031497,
          "duration": 0.1875
        },
        {
          "name": "E2",
          "midi": 40,
          "time": 21,
          "velocity": 0.7874015748031497,
          "duration": 0.1875
        },
        {
          "name": "B2",
          "midi": 47,
          "time": 21.1875,
          "velocity": 0.7874015748031497,
          "duration": 0.1875
        },
        {
          "name": "G3",
          "midi": 55,
          "time": 21.375,
          "velocity": 0.7874015748031497,
          "duration": 0.1875
        },
        {
          "name": "F#3",
          "midi": 54,
          "time": 21.5625,
          "velocity": 0.7874015748031497,
          "duration": 0.1875
        },
        {
          "name": "G3",
          "midi": 55,
          "time": 21.75,
          "velocity": 0.7874015748031497,
          "duration": 0.1875
        },
        {
          "name": "B2",
          "midi": 47,
          "time": 21.9375,
          "velocity": 0.7874015748031497,
          "duration": 0.1875
        },
        {
          "name": "G3",
          "midi": 55,
          "time": 22.125,
          "velocity": 0.7874015748031497,
          "duration": 0.1875
        },
        {
          "name": "B2",
          "midi": 47,
          "time": 22.3125,
          "velocity": 0.7874015748031497,
          "duration": 0.1875
        },
        {
          "name": "E2",
          "midi": 40,
          "time": 22.5,
          "velocity": 0.7874015748031497,
          "duration": 0.1875
        },
        {
          "name": "B2",
          "midi": 47,
          "time": 22.6875,
          "velocity": 0.7874015748031497,
          "duration": 0.1875
        },
        {
          "name": "G3",
          "midi": 55,
          "time": 22.875,
          "velocity": 0.7874015748031497,
          "duration": 0.1875
        },
        {
          "name": "F#3",
          "midi": 54,
          "time": 23.0625,
          "velocity": 0.7874015748031497,
          "duration": 0.1875
        },
        {
          "name": "G3",
          "midi": 55,
          "time": 23.25,
          "velocity": 0.7874015748031497,
          "duration": 0.1875
        },
        {
          "name": "B2",
          "midi": 47,
          "time": 23.4375,
          "velocity": 0.7874015748031497,
          "duration": 0.1875
        },
        {
          "name": "G3",
          "midi": 55,
          "time": 23.625,
          "velocity": 0.7874015748031497,
          "duration": 0.1875
        },
        {
          "name": "B2",
          "midi": 47,
          "time": 23.8125,
          "velocity": 0.7874015748031497,
          "duration": 0.1875
        },
        {
          "name": "E2",
          "midi": 40,
          "time": 24,
          "velocity": 0.7874015748031497,
          "duration": 0.1875
        },
        {
          "name": "C#3",
          "midi": 49,
          "time": 24.1875,
          "velocity": 0.7874015748031497,
          "duration": 0.1875
        },
        {
          "name": "D3",
          "midi": 50,
          "time": 24.375,
          "velocity": 0.7874015748031497,
          "duration": 0.1875
        },
        {
          "name": "E3",
          "midi": 52,
          "time": 24.5625,
          "velocity": 0.7874015748031497,
          "duration": 0.1875
        },
        {
          "name": "D3",
          "midi": 50,
          "time": 24.75,
          "velocity": 0.7874015748031497,
          "duration": 0.1875
        },
        {
          "name": "C#3",
          "midi": 49,
          "time": 24.9375,
          "velocity": 0.7874015748031497,
          "duration": 0.1875
        },
        {
          "name": "B2",
          "midi": 47,
          "time": 25.125,
          "velocity": 0.7874015748031497,
          "duration": 0.1875
        },
        {
          "name": "A2",
          "midi": 45,
          "time": 25.3125,
          "velocity": 0.7874015748031497,
          "duration": 0.1875
        },
        {
          "name": "G3",
          "midi": 55,
          "time": 25.5,
          "velocity": 0.7874015748031497,
          "duration": 0.1875
        },
        {
          "name": "F#3",
          "midi": 54,
          "time": 25.6875,
          "velocity": 0.7874015748031497,
          "duration": 0.1875
        },
        {
          "name": "E3",
          "midi": 52,
          "time": 25.875,
          "velocity": 0.7874015748031497,
          "duration": 0.1875
        },
        {
          "name": "D4",
          "midi": 62,
          "time": 26.0625,
          "velocity": 0.7874015748031497,
          "duration": 0.1875
        },
        {
          "name": "C#4",
          "midi": 61,
          "time": 26.25,
          "velocity": 0.7874015748031497,
          "duration": 0.1875
        },
        {
          "name": "B3",
          "midi": 59,
          "time": 26.4375,
          "velocity": 0.7874015748031497,
          "duration": 0.1875
        },
        {
          "name": "A3",
          "midi": 57,
          "time": 26.625,
          "velocity": 0.7874015748031497,
          "duration": 0.1875
        },
        {
          "name": "G3",
          "midi": 55,
          "time": 26.8125,
          "velocity": 0.7874015748031497,
          "duration": 0.1875
        },
        {
          "name": "F#3",
          "midi": 54,
          "time": 27,
          "velocity": 0.7874015748031497,
          "duration": 0.1875
        },
        {
          "name": "E3",
          "midi": 52,
          "time": 27.1875,
          "velocity": 0.7874015748031497,
          "duration": 0.1875
        },
        {
          "name": "D3",
          "midi": 50,
          "time": 27.375,
          "velocity": 0.7874015748031497,
          "duration": 0.1875
        },
        {
          "name": "D4",
          "midi": 62,
          "time": 27.5625,
          "velocity": 0.7874015748031497,
          "duration": 0.1875
        },
        {
          "name": "A3",
          "midi": 57,
          "time": 27.75,
          "velocity": 0.7874015748031497,
          "duration": 0.1875
        },
        {
          "name": "D4",
          "midi": 62,
          "time": 27.9375,
          "velocity": 0.7874015748031497,
          "duration": 0.1875
        },
        {
          "name": "F#3",
          "midi": 54,
          "time": 28.125,
          "velocity": 0.7874015748031497,
          "duration": 0.1875
        },
        {
          "name": "A3",
          "midi": 57,
          "time": 28.3125,
          "velocity": 0.7874015748031497,
          "duration": 0.1875
        },
        {
          "name": "D3",
          "midi": 50,
          "time": 28.5,
          "velocity": 0.7874015748031497,
          "duration": 0.1875
        },
        {
          "name": "E3",
          "midi": 52,
          "time": 28.6875,
          "velocity": 0.7874015748031497,
          "duration": 0.1875
        },
        {
          "name": "F#3",
          "midi": 54,
          "time": 28.875,
          "velocity": 0.7874015748031497,
          "duration": 0.1875
        },
        {
          "name": "A3",
          "midi": 57,
          "time": 29.0625,
          "velocity": 0.7874015748031497,
          "duration": 0.1875
        },
        {
          "name": "G3",
          "midi": 55,
          "time": 29.25,
          "velocity": 0.7874015748031497,
          "duration": 0.1875
        },
        {
          "name": "F#3",
          "midi": 54,
          "time": 29.4375,
          "velocity": 0.7874015748031497,
          "duration": 0.1875
        },
        {
          "name": "E3",
          "midi": 52,
          "time": 29.625,
          "velocity": 0.7874015748031497,
          "duration": 0.1875
        },
        {
          "name": "D3",
          "midi": 50,
          "time": 29.8125,
          "velocity": 0.7874015748031497,
          "duration": 0.1875
        },
        {
          "name": "G#3",
          "midi": 56,
          "time": 30,
          "velocity": 0.7874015748031497,
          "duration": 0.1875
        },
        {
          "name": "D3",
          "midi": 50,
          "time": 30.1875,
          "velocity": 0.7874015748031497,
          "duration": 0.1875
        },
        {
          "name": "F3",
          "midi": 53,
          "time": 30.375,
          "velocity": 0.7874015748031497,
          "duration": 0.1875
        },
        {
          "name": "E3",
          "midi": 52,
          "time": 30.5625,
          "velocity": 0.7874015748031497,
          "duration": 0.1875
        },
        {
          "name": "F3",
          "midi": 53,
          "time": 30.75,
          "velocity": 0.7874015748031497,
          "duration": 0.1875
        },
        {
          "name": "D3",
          "midi": 50,
          "time": 30.9375,
          "velocity": 0.7874015748031497,
          "duration": 0.1875
        },
        {
          "name": "G#3",
          "midi": 56,
          "time": 31.125,
          "velocity": 0.7874015748031497,
          "duration": 0.1875
        },
        {
          "name": "D3",
          "midi": 50,
          "time": 31.3125,
          "velocity": 0.7874015748031497,
          "duration": 0.1875
        },
        {
          "name": "B3",
          "midi": 59,
          "time": 31.5,
          "velocity": 0.7874015748031497,
          "duration": 0.1875
        },
        {
          "name": "D3",
          "midi": 50,
          "time": 31.6875,
          "velocity": 0.7874015748031497,
          "duration": 0.1875
        },
        {
          "name": "F3",
          "midi": 53,
          "time": 31.875,
          "velocity": 0.7874015748031497,
          "duration": 0.1875
        },
        {
          "name": "E3",
          "midi": 52,
          "time": 32.0625,
          "velocity": 0.7874015748031497,
          "duration": 0.1875
        },
        {
          "name": "F3",
          "midi": 53,
          "time": 32.25,
          "velocity": 0.7874015748031497,
          "duration": 0.1875
        },
        {
          "name": "D3",
          "midi": 50,
          "time": 32.4375,
          "velocity": 0.7874015748031497,
          "duration": 0.1875
        },
        {
          "name": "G#3",
          "midi": 56,
          "time": 32.625,
          "velocity": 0.7874015748031497,
          "duration": 0.1875
        },
        {
          "name": "D3",
          "midi": 50,
          "time": 32.8125,
          "velocity": 0.7874015748031497,
          "duration": 0.1875
        },
        {
          "name": "C3",
          "midi": 48,
          "time": 33,
          "velocity": 0.7874015748031497,
          "duration": 0.1875
        },
        {
          "name": "E3",
          "midi": 52,
          "time": 33.1875,
          "velocity": 0.7874015748031497,
          "duration": 0.1875
        },
        {
          "name": "A3",
          "midi": 57,
          "time": 33.375,
          "velocity": 0.7874015748031497,
          "duration": 0.1875
        },
        {
          "name": "B3",
          "midi": 59,
          "time": 33.5625,
          "velocity": 0.7874015748031497,
          "duration": 0.1875
        },
        {
          "name": "C4",
          "midi": 60,
          "time": 33.75,
          "velocity": 0.7874015748031497,
          "duration": 0.1875
        },
        {
          "name": "A3",
          "midi": 57,
          "time": 33.9375,
          "velocity": 0.7874015748031497,
          "duration": 0.1875
        },
        {
          "name": "E3",
          "midi": 52,
          "time": 34.125,
          "velocity": 0.7874015748031497,
          "duration": 0.1875
        },
        {
          "name": "D3",
          "midi": 50,
          "time": 34.3125,
          "velocity": 0.7874015748031497,
          "duration": 0.1875
        },
        {
          "name": "C3",
          "midi": 48,
          "time": 34.5,
          "velocity": 0.7874015748031497,
          "duration": 0.1875
        },
        {
          "name": "E3",
          "midi": 52,
          "time": 34.6875,
          "velocity": 0.7874015748031497,
          "duration": 0.1875
        },
        {
          "name": "A3",
          "midi": 57,
          "time": 34.875,
          "velocity": 0.7874015748031497,
          "duration": 0.1875
        },
        {
          "name": "B3",
          "midi": 59,
          "time": 35.0625,
          "velocity": 0.7874015748031497,
          "duration": 0.1875
        },
        {
          "name": "C4",
          "midi": 60,
          "time": 35.25,
          "velocity": 0.7874015748031497,
          "duration": 0.1875
        },
        {
          "name": "A3",
          "midi": 57,
          "time": 35.4375,
          "velocity": 0.7874015748031497,
          "duration": 0.1875
        },
        {
          "name": "F#3",
          "midi": 54,
          "time": 35.625,
          "velocity": 0.7874015748031497,
          "duration": 0.1875
        },
        {
          "name": "E3",
          "midi": 52,
          "time": 35.8125,
          "velocity": 0.7874015748031497,
          "duration": 0.1875
        },
        {
          "name": "D#3",
          "midi": 51,
          "time": 36,
          "velocity": 0.7874015748031497,
          "duration": 0.1875
        },
        {
          "name": "F#3",
          "midi": 54,
          "time": 36.1875,
          "velocity": 0.7874015748031497,
          "duration": 0.1875
        },
        {
          "name": "D#3",
          "midi": 51,
          "time": 36.375,
          "velocity": 0.7874015748031497,
          "duration": 0.1875
        },
        {
          "name": "F#3",
          "midi": 54,
          "time": 36.5625,
          "velocity": 0.7874015748031497,
          "duration": 0.1875
        },
        {
          "name": "A3",
          "midi": 57,
          "time": 36.75,
          "velocity": 0.7874015748031497,
          "duration": 0.1875
        },
        {
          "name": "F#3",
          "midi": 54,
          "time": 36.9375,
          "velocity": 0.7874015748031497,
          "duration": 0.1875
        },
        {
          "name": "A3",
          "midi": 57,
          "time": 37.125,
          "velocity": 0.7874015748031497,
          "duration": 0.1875
        },
        {
          "name": "F#3",
          "midi": 54,
          "time": 37.3125,
          "velocity": 0.7874015748031497,
          "duration": 0.1875
        },
        {
          "name": "D#3",
          "midi": 51,
          "time": 37.5,
          "velocity": 0.7874015748031497,
          "duration": 0.1875
        },
        {
          "name": "F#3",
          "midi": 54,
          "time": 37.6875,
          "velocity": 0.7874015748031497,
          "duration": 0.1875
        },
        {
          "name": "D#3",
          "midi": 51,
          "time": 37.875,
          "velocity": 0.7874015748031497,
          "duration": 0.1875
        },
        {
          "name": "F#3",
          "midi": 54,
          "time": 38.0625,
          "velocity": 0.7874015748031497,
          "duration": 0.1875
        },
        {
          "name": "A3",
          "midi": 57,
          "time": 38.25,
          "velocity": 0.7874015748031497,
          "duration": 0.1875
        },
        {
          "name": "F#3",
          "midi": 54,
          "time": 38.4375,
          "velocity": 0.7874015748031497,
          "duration": 0.1875
        },
        {
          "name": "A3",
          "midi": 57,
          "time": 38.625,
          "velocity": 0.7874015748031497,
          "duration": 0.1875
        },
        {
          "name": "F#3",
          "midi": 54,
          "time": 38.8125,
          "velocity": 0.7874015748031497,
          "duration": 0.1875
        },
        {
          "name": "G3",
          "midi": 55,
          "time": 39,
          "velocity": 0.7874015748031497,
          "duration": 0.1875
        },
        {
          "name": "F#3",
          "midi": 54,
          "time": 39.1875,
          "velocity": 0.7874015748031497,
          "duration": 0.1875
        },
        {
          "name": "E3",
          "midi": 52,
          "time": 39.375,
          "velocity": 0.7874015748031497,
          "duration": 0.1875
        },
        {
          "name": "G3",
          "midi": 55,
          "time": 39.5625,
          "velocity": 0.7874015748031497,
          "duration": 0.1875
        },
        {
          "name": "F#3",
          "midi": 54,
          "time": 39.75,
          "velocity": 0.7874015748031497,
          "duration": 0.1875
        },
        {
          "name": "G3",
          "midi": 55,
          "time": 39.9375,
          "velocity": 0.7874015748031497,
          "duration": 0.1875
        },
        {
          "name": "A3",
          "midi": 57,
          "time": 40.125,
          "velocity": 0.7874015748031497,
          "duration": 0.1875
        },
        {
          "name": "F#3",
          "midi": 54,
          "time": 40.3125,
          "velocity": 0.7874015748031497,
          "duration": 0.1875
        },
        {
          "name": "G3",
          "midi": 55,
          "time": 40.5,
          "velocity": 0.7874015748031497,
          "duration": 0.1875
        },
        {
          "name": "F#3",
          "midi": 54,
          "time": 40.6875,
          "velocity": 0.7874015748031497,
          "duration": 0.1875
        },
        {
          "name": "E3",
          "midi": 52,
          "time": 40.875,
          "velocity": 0.7874015748031497,
          "duration": 0.1875
        },
        {
          "name": "D3",
          "midi": 50,
          "time": 41.0625,
          "velocity": 0.7874015748031497,
          "duration": 0.1875
        },
        {
          "name": "C3",
          "midi": 48,
          "time": 41.25,
          "velocity": 0.7874015748031497,
          "duration": 0.1875
        },
        {
          "name": "B2",
          "midi": 47,
          "time": 41.4375,
          "velocity": 0.7874015748031497,
          "duration": 0.1875
        },
        {
          "name": "A2",
          "midi": 45,
          "time": 41.625,
          "velocity": 0.7874015748031497,
          "duration": 0.1875
        },
        {
          "name": "G2",
          "midi": 43,
          "time": 41.8125,
          "velocity": 0.7874015748031497,
          "duration": 0.1875
        },
        {
          "name": "F#2",
          "midi": 42,
          "time": 42,
          "velocity": 0.7874015748031497,
          "duration": 0.1875
        },
        {
          "name": "C3",
          "midi": 48,
          "time": 42.1875,
          "velocity": 0.7874015748031497,
          "duration": 0.1875
        },
        {
          "name": "D3",
          "midi": 50,
          "time": 42.375,
          "velocity": 0.7874015748031497,
          "duration": 0.1875
        },
        {
          "name": "C3",
          "midi": 48,
          "time": 42.5625,
          "velocity": 0.7874015748031497,
          "duration": 0.1875
        },
        {
          "name": "D3",
          "midi": 50,
          "time": 42.75,
          "velocity": 0.7874015748031497,
          "duration": 0.1875
        },
        {
          "name": "C3",
          "midi": 48,
          "time": 42.9375,
          "velocity": 0.7874015748031497,
          "duration": 0.1875
        },
        {
          "name": "D3",
          "midi": 50,
          "time": 43.125,
          "velocity": 0.7874015748031497,
          "duration": 0.1875
        },
        {
          "name": "C3",
          "midi": 48,
          "time": 43.3125,
          "velocity": 0.7874015748031497,
          "duration": 0.1875
        },
        {
          "name": "F#2",
          "midi": 42,
          "time": 43.5,
          "velocity": 0.7874015748031497,
          "duration": 0.1875
        },
        {
          "name": "C3",
          "midi": 48,
          "time": 43.6875,
          "velocity": 0.7874015748031497,
          "duration": 0.1875
        },
        {
          "name": "D3",
          "midi": 50,
          "time": 43.875,
          "velocity": 0.7874015748031497,
          "duration": 0.1875
        },
        {
          "name": "C3",
          "midi": 48,
          "time": 44.0625,
          "velocity": 0.7874015748031497,
          "duration": 0.1875
        },
        {
          "name": "D3",
          "midi": 50,
          "time": 44.25,
          "velocity": 0.7874015748031497,
          "duration": 0.1875
        },
        {
          "name": "C3",
          "midi": 48,
          "time": 44.4375,
          "velocity": 0.7874015748031497,
          "duration": 0.1875
        },
        {
          "name": "D3",
          "midi": 50,
          "time": 44.625,
          "velocity": 0.7874015748031497,
          "duration": 0.1875
        },
        {
          "name": "C3",
          "midi": 48,
          "time": 44.8125,
          "velocity": 0.7874015748031497,
          "duration": 0.1875
        },
        {
          "name": "G2",
          "midi": 43,
          "time": 45,
          "velocity": 0.7874015748031497,
          "duration": 0.1875
        },
        {
          "name": "B2",
          "midi": 47,
          "time": 45.1875,
          "velocity": 0.7874015748031497,
          "duration": 0.1875
        },
        {
          "name": "F3",
          "midi": 53,
          "time": 45.375,
          "velocity": 0.7874015748031497,
          "duration": 0.1875
        },
        {
          "name": "E3",
          "midi": 52,
          "time": 45.5625,
          "velocity": 0.7874015748031497,
          "duration": 0.1875
        },
        {
          "name": "F3",
          "midi": 53,
          "time": 45.75,
          "velocity": 0.7874015748031497,
          "duration": 0.1875
        },
        {
          "name": "B2",
          "midi": 47,
          "time": 45.9375,
          "velocity": 0.7874015748031497,
          "duration": 0.1875
        },
        {
          "name": "F3",
          "midi": 53,
          "time": 46.125,
          "velocity": 0.7874015748031497,
          "duration": 0.1875
        },
        {
          "name": "B2",
          "midi": 47,
          "time": 46.3125,
          "velocity": 0.7874015748031497,
          "duration": 0.1875
        },
        {
          "name": "G2",
          "midi": 43,
          "time": 46.5,
          "velocity": 0.7874015748031497,
          "duration": 0.1875
        },
        {
          "name": "B2",
          "midi": 47,
          "time": 46.6875,
          "velocity": 0.7874015748031497,
          "duration": 0.1875
        },
        {
          "name": "F3",
          "midi": 53,
          "time": 46.875,
          "velocity": 0.7874015748031497,
          "duration": 0.1875
        },
        {
          "name": "E3",
          "midi": 52,
          "time": 47.0625,
          "velocity": 0.7874015748031497,
          "duration": 0.1875
        },
        {
          "name": "F3",
          "midi": 53,
          "time": 47.25,
          "velocity": 0.7874015748031497,
          "duration": 0.1875
        },
        {
          "name": "B2",
          "midi": 47,
          "time": 47.4375,
          "velocity": 0.7874015748031497,
          "duration": 0.1875
        },
        {
          "name": "F3",
          "midi": 53,
          "time": 47.625,
          "velocity": 0.7874015748031497,
          "duration": 0.1875
        },
        {
          "name": "B2",
          "midi": 47,
          "time": 47.8125,
          "velocity": 0.7874015748031497,
          "duration": 0.1875
        },
        {
          "name": "G2",
          "midi": 43,
          "time": 48,
          "velocity": 0.7874015748031497,
          "duration": 0.1875
        },
        {
          "name": "C3",
          "midi": 48,
          "time": 48.1875,
          "velocity": 0.7874015748031497,
          "duration": 0.1875
        },
        {
          "name": "E3",
          "midi": 52,
          "time": 48.375,
          "velocity": 0.7874015748031497,
          "duration": 0.1875
        },
        {
          "name": "D3",
          "midi": 50,
          "time": 48.5625,
          "velocity": 0.7874015748031497,
          "duration": 0.1875
        },
        {
          "name": "E3",
          "midi": 52,
          "time": 48.75,
          "velocity": 0.7874015748031497,
          "duration": 0.1875
        },
        {
          "name": "C3",
          "midi": 48,
          "time": 48.9375,
          "velocity": 0.7874015748031497,
          "duration": 0.1875
        },
        {
          "name": "E3",
          "midi": 52,
          "time": 49.125,
          "velocity": 0.7874015748031497,
          "duration": 0.1875
        },
        {
          "name": "C3",
          "midi": 48,
          "time": 49.3125,
          "velocity": 0.7874015748031497,
          "duration": 0.1875
        },
        {
          "name": "G2",
          "midi": 43,
          "time": 49.5,
          "velocity": 0.7874015748031497,
          "duration": 0.1875
        },
        {
          "name": "C3",
          "midi": 48,
          "time": 49.6875,
          "velocity": 0.7874015748031497,
          "duration": 0.1875
        },
        {
          "name": "E3",
          "midi": 52,
          "time": 49.875,
          "velocity": 0.7874015748031497,
          "duration": 0.1875
        },
        {
          "name": "D3",
          "midi": 50,
          "time": 50.0625,
          "velocity": 0.7874015748031497,
          "duration": 0.1875
        },
        {
          "name": "E3",
          "midi": 52,
          "time": 50.25,
          "velocity": 0.7874015748031497,
          "duration": 0.1875
        },
        {
          "name": "C3",
          "midi": 48,
          "time": 50.4375,
          "velocity": 0.7874015748031497,
          "duration": 0.1875
        },
        {
          "name": "E3",
          "midi": 52,
          "time": 50.625,
          "velocity": 0.7874015748031497,
          "duration": 0.1875
        },
        {
          "name": "C3",
          "midi": 48,
          "time": 50.8125,
          "velocity": 0.7874015748031497,
          "duration": 0.1875
        },
        {
          "name": "G2",
          "midi": 43,
          "time": 51,
          "velocity": 0.7874015748031497,
          "duration": 0.1875
        },
        {
          "name": "F#3",
          "midi": 54,
          "time": 51.1875,
          "velocity": 0.7874015748031497,
          "duration": 0.1875
        },
        {
          "name": "C4",
          "midi": 60,
          "time": 51.375,
          "velocity": 0.7874015748031497,
          "duration": 0.1875
        },
        {
          "name": "B3",
          "midi": 59,
          "time": 51.5625,
          "velocity": 0.7874015748031497,
          "duration": 0.1875
        },
        {
          "name": "C4",
          "midi": 60,
          "time": 51.75,
          "velocity": 0.7874015748031497,
          "duration": 0.1875
        },
        {
          "name": "F#3",
          "midi": 54,
          "time": 51.9375,
          "velocity": 0.7874015748031497,
          "duration": 0.1875
        },
        {
          "name": "C4",
          "midi": 60,
          "time": 52.125,
          "velocity": 0.7874015748031497,
          "duration": 0.1875
        },
        {
          "name": "F#3",
          "midi": 54,
          "time": 52.3125,
          "velocity": 0.7874015748031497,
          "duration": 0.1875
        },
        {
          "name": "G2",
          "midi": 43,
          "time": 52.5,
          "velocity": 0.7874015748031497,
          "duration": 0.1875
        },
        {
          "name": "F#3",
          "midi": 54,
          "time": 52.6875,
          "velocity": 0.7874015748031497,
          "duration": 0.1875
        },
        {
          "name": "C4",
          "midi": 60,
          "time": 52.875,
          "velocity": 0.7874015748031497,
          "duration": 0.1875
        },
        {
          "name": "B3",
          "midi": 59,
          "time": 53.0625,
          "velocity": 0.7874015748031497,
          "duration": 0.1875
        },
        {
          "name": "C4",
          "midi": 60,
          "time": 53.25,
          "velocity": 0.7874015748031497,
          "duration": 0.1875
        },
        {
          "name": "F#3",
          "midi": 54,
          "time": 53.4375,
          "velocity": 0.7874015748031497,
          "duration": 0.1875
        },
        {
          "name": "C4",
          "midi": 60,
          "time": 53.625,
          "velocity": 0.7874015748031497,
          "duration": 0.1875
        },
        {
          "name": "F#3",
          "midi": 54,
          "time": 53.8125,
          "velocity": 0.7874015748031497,
          "duration": 0.1875
        },
        {
          "name": "G2",
          "midi": 43,
          "time": 54,
          "velocity": 0.7874015748031497,
          "duration": 0.1875
        },
        {
          "name": "D3",
          "midi": 50,
          "time": 54.1875,
          "velocity": 0.7874015748031497,
          "duration": 0.1875
        },
        {
          "name": "B3",
          "midi": 59,
          "time": 54.375,
          "velocity": 0.7874015748031497,
          "duration": 0.1875
        },
        {
          "name": "A3",
          "midi": 57,
          "time": 54.5625,
          "velocity": 0.7874015748031497,
          "duration": 0.1875
        },
        {
          "name": "B3",
          "midi": 59,
          "time": 54.75,
          "velocity": 0.7874015748031497,
          "duration": 0.1875
        },
        {
          "name": "G3",
          "midi": 55,
          "time": 54.9375,
          "velocity": 0.7874015748031497,
          "duration": 0.1875
        },
        {
          "name": "F#3",
          "midi": 54,
          "time": 55.125,
          "velocity": 0.7874015748031497,
          "duration": 0.1875
        },
        {
          "name": "E3",
          "midi": 52,
          "time": 55.3125,
          "velocity": 0.7874015748031497,
          "duration": 0.1875
        },
        {
          "name": "D3",
          "midi": 50,
          "time": 55.5,
          "velocity": 0.7874015748031497,
          "duration": 0.1875
        },
        {
          "name": "C3",
          "midi": 48,
          "time": 55.6875,
          "velocity": 0.7874015748031497,
          "duration": 0.1875
        },
        {
          "name": "B2",
          "midi": 47,
          "time": 55.875,
          "velocity": 0.7874015748031497,
          "duration": 0.1875
        },
        {
          "name": "A2",
          "midi": 45,
          "time": 56.0625,
          "velocity": 0.7874015748031497,
          "duration": 0.1875
        },
        {
          "name": "G2",
          "midi": 43,
          "time": 56.25,
          "velocity": 0.7874015748031497,
          "duration": 0.1875
        },
        {
          "name": "F#2",
          "midi": 42,
          "time": 56.4375,
          "velocity": 0.7874015748031497,
          "duration": 0.1875
        },
        {
          "name": "E2",
          "midi": 40,
          "time": 56.625,
          "velocity": 0.7874015748031497,
          "duration": 0.1875
        },
        {
          "name": "D2",
          "midi": 38,
          "time": 56.8125,
          "velocity": 0.7874015748031497,
          "duration": 0.1875
        },
        {
          "name": "C#2",
          "midi": 37,
          "time": 57,
          "velocity": 0.7874015748031497,
          "duration": 0.1875
        },
        {
          "name": "A2",
          "midi": 45,
          "time": 57.1875,
          "velocity": 0.7874015748031497,
          "duration": 0.1875
        },
        {
          "name": "E3",
          "midi": 52,
          "time": 57.375,
          "velocity": 0.7874015748031497,
          "duration": 0.1875
        },
        {
          "name": "F#3",
          "midi": 54,
          "time": 57.5625,
          "velocity": 0.7874015748031497,
          "duration": 0.1875
        },
        {
          "name": "G3",
          "midi": 55,
          "time": 57.75,
          "velocity": 0.7874015748031497,
          "duration": 0.1875
        },
        {
          "name": "E3",
          "midi": 52,
          "time": 57.9375,
          "velocity": 0.7874015748031497,
          "duration": 0.1875
        },
        {
          "name": "F#3",
          "midi": 54,
          "time": 58.125,
          "velocity": 0.7874015748031497,
          "duration": 0.1875
        },
        {
          "name": "G3",
          "midi": 55,
          "time": 58.3125,
          "velocity": 0.7874015748031497,
          "duration": 0.1875
        },
        {
          "name": "C#2",
          "midi": 37,
          "time": 58.5,
          "velocity": 0.7874015748031497,
          "duration": 0.1875
        },
        {
          "name": "A2",
          "midi": 45,
          "time": 58.6875,
          "velocity": 0.7874015748031497,
          "duration": 0.1875
        },
        {
          "name": "E3",
          "midi": 52,
          "time": 58.875,
          "velocity": 0.7874015748031497,
          "duration": 0.1875
        },
        {
          "name": "F#3",
          "midi": 54,
          "time": 59.0625,
          "velocity": 0.7874015748031497,
          "duration": 0.1875
        },
        {
          "name": "G3",
          "midi": 55,
          "time": 59.25,
          "velocity": 0.7874015748031497,
          "duration": 0.1875
        },
        {
          "name": "E3",
          "midi": 52,
          "time": 59.4375,
          "velocity": 0.7874015748031497,
          "duration": 0.1875
        },
        {
          "name": "F#3",
          "midi": 54,
          "time": 59.625,
          "velocity": 0.7874015748031497,
          "duration": 0.1875
        },
        {
          "name": "G3",
          "midi": 55,
          "time": 59.8125,
          "velocity": 0.7874015748031497,
          "duration": 0.1875
        },
        {
          "name": "C2",
          "midi": 36,
          "time": 60,
          "velocity": 0.7874015748031497,
          "duration": 0.1875
        },
        {
          "name": "A2",
          "midi": 45,
          "time": 60.1875,
          "velocity": 0.7874015748031497,
          "duration": 0.1875
        },
        {
          "name": "D3",
          "midi": 50,
          "time": 60.375,
          "velocity": 0.7874015748031497,
          "duration": 0.1875
        },
        {
          "name": "E3",
          "midi": 52,
          "time": 60.5625,
          "velocity": 0.7874015748031497,
          "duration": 0.1875
        },
        {
          "name": "F#3",
          "midi": 54,
          "time": 60.75,
          "velocity": 0.7874015748031497,
          "duration": 0.1875
        },
        {
          "name": "D3",
          "midi": 50,
          "time": 60.9375,
          "velocity": 0.7874015748031497,
          "duration": 0.1875
        },
        {
          "name": "E3",
          "midi": 52,
          "time": 61.125,
          "velocity": 0.7874015748031497,
          "duration": 0.1875
        },
        {
          "name": "F#3",
          "midi": 54,
          "time": 61.3125,
          "velocity": 0.7874015748031497,
          "duration": 0.1875
        },
        {
          "name": "C2",
          "midi": 36,
          "time": 61.5,
          "velocity": 0.7874015748031497,
          "duration": 0.1875
        },
        {
          "name": "A2",
          "midi": 45,
          "time": 61.6875,
          "velocity": 0.7874015748031497,
          "duration": 0.1875
        },
        {
          "name": "D3",
          "midi": 50,
          "time": 61.875,
          "velocity": 0.7874015748031497,
          "duration": 0.1875
        },
        {
          "name": "E3",
          "midi": 52,
          "time": 62.0625,
          "velocity": 0.7874015748031497,
          "duration": 0.1875
        },
        {
          "name": "F#3",
          "midi": 54,
          "time": 62.25,
          "velocity": 0.7874015748031497,
          "duration": 0.1875
        },
        {
          "name": "D3",
          "midi": 50,
          "time": 62.4375,
          "velocity": 0.7874015748031497,
          "duration": 0.1875
        },
        {
          "name": "E3",
          "midi": 52,
          "time": 62.625,
          "velocity": 0.7874015748031497,
          "duration": 0.1875
        },
        {
          "name": "F#3",
          "midi": 54,
          "time": 62.8125,
          "velocity": 0.7874015748031497,
          "duration": 0.1875
        },
        {
          "name": "C2",
          "midi": 36,
          "time": 63,
          "velocity": 0.7874015748031497,
          "duration": 0.1875
        },
        {
          "name": "A2",
          "midi": 45,
          "time": 63.1875,
          "velocity": 0.7874015748031497,
          "duration": 0.1875
        },
        {
          "name": "D3",
          "midi": 50,
          "time": 63.375,
          "velocity": 0.7874015748031497,
          "duration": 0.1875
        },
        {
          "name": "F#3",
          "midi": 54,
          "time": 63.5625,
          "velocity": 0.7874015748031497,
          "duration": 0.1875
        },
        {
          "name": "A3",
          "midi": 57,
          "time": 63.75,
          "velocity": 0.7874015748031497,
          "duration": 0.1875
        },
        {
          "name": "C#4",
          "midi": 61,
          "time": 63.9375,
          "velocity": 0.7874015748031497,
          "duration": 0.1875
        },
        {
          "name": "D4",
          "midi": 62,
          "time": 64.125,
          "velocity": 0.7874015748031497,
          "duration": 0.5625
        },
        {
          "name": "A2",
          "midi": 45,
          "time": 64.6875,
          "velocity": 0.7874015748031497,
          "duration": 0.1875
        },
        {
          "name": "B2",
          "midi": 47,
          "time": 64.875,
          "velocity": 0.7874015748031497,
          "duration": 0.1875
        },
        {
          "name": "C3",
          "midi": 48,
          "time": 65.0625,
          "velocity": 0.7874015748031497,
          "duration": 0.1875
        },
        {
          "name": "D3",
          "midi": 50,
          "time": 65.25,
          "velocity": 0.7874015748031497,
          "duration": 0.1875
        },
        {
          "name": "E3",
          "midi": 52,
          "time": 65.4375,
          "velocity": 0.7874015748031497,
          "duration": 0.1875
        },
        {
          "name": "F#3",
          "midi": 54,
          "time": 65.625,
          "velocity": 0.7874015748031497,
          "duration": 0.1875
        },
        {
          "name": "G3",
          "midi": 55,
          "time": 65.8125,
          "velocity": 0.7874015748031497,
          "duration": 0.1875
        },
        {
          "name": "A3",
          "midi": 57,
          "time": 66,
          "velocity": 0.7874015748031497,
          "duration": 0.1875
        },
        {
          "name": "F#3",
          "midi": 54,
          "time": 66.1875,
          "velocity": 0.7874015748031497,
          "duration": 0.1875
        },
        {
          "name": "D3",
          "midi": 50,
          "time": 66.375,
          "velocity": 0.7874015748031497,
          "duration": 0.1875
        },
        {
          "name": "E3",
          "midi": 52,
          "time": 66.5625,
          "velocity": 0.7874015748031497,
          "duration": 0.1875
        },
        {
          "name": "F#3",
          "midi": 54,
          "time": 66.75,
          "velocity": 0.7874015748031497,
          "duration": 0.1875
        },
        {
          "name": "G3",
          "midi": 55,
          "time": 66.9375,
          "velocity": 0.7874015748031497,
          "duration": 0.1875
        },
        {
          "name": "A3",
          "midi": 57,
          "time": 67.125,
          "velocity": 0.7874015748031497,
          "duration": 0.1875
        },
        {
          "name": "B3",
          "midi": 59,
          "time": 67.3125,
          "velocity": 0.7874015748031497,
          "duration": 0.1875
        },
        {
          "name": "C4",
          "midi": 60,
          "time": 67.5,
          "velocity": 0.7874015748031497,
          "duration": 0.1875
        },
        {
          "name": "A3",
          "midi": 57,
          "time": 67.6875,
          "velocity": 0.7874015748031497,
          "duration": 0.1875
        },
        {
          "name": "F#3",
          "midi": 54,
          "time": 67.875,
          "velocity": 0.7874015748031497,
          "duration": 0.1875
        },
        {
          "name": "G3",
          "midi": 55,
          "time": 68.0625,
          "velocity": 0.7874015748031497,
          "duration": 0.1875
        },
        {
          "name": "A3",
          "midi": 57,
          "time": 68.25,
          "velocity": 0.7874015748031497,
          "duration": 0.1875
        },
        {
          "name": "B3",
          "midi": 59,
          "time": 68.4375,
          "velocity": 0.7874015748031497,
          "duration": 0.1875
        },
        {
          "name": "C4",
          "midi": 60,
          "time": 68.625,
          "velocity": 0.7874015748031497,
          "duration": 0.1875
        },
        {
          "name": "D4",
          "midi": 62,
          "time": 68.8125,
          "velocity": 0.7874015748031497,
          "duration": 0.1875
        },
        {
          "name": "D#4",
          "midi": 63,
          "time": 69,
          "velocity": 0.7874015748031497,
          "duration": 0.1875
        },
        {
          "name": "D4",
          "midi": 62,
          "time": 69.1875,
          "velocity": 0.7874015748031497,
          "duration": 0.1875
        },
        {
          "name": "C#4",
          "midi": 61,
          "time": 69.375,
          "velocity": 0.7874015748031497,
          "duration": 0.1875
        },
        {
          "name": "D4",
          "midi": 62,
          "time": 69.5625,
          "velocity": 0.7874015748031497,
          "duration": 0.1875
        },
        {
          "name": "D4",
          "midi": 62,
          "time": 69.75,
          "velocity": 0.7874015748031497,
          "duration": 0.1875
        },
        {
          "name": "C4",
          "midi": 60,
          "time": 69.9375,
          "velocity": 0.7874015748031497,
          "duration": 0.1875
        },
        {
          "name": "B3",
          "midi": 59,
          "time": 70.125,
          "velocity": 0.7874015748031497,
          "duration": 0.1875
        },
        {
          "name": "C4",
          "midi": 60,
          "time": 70.3125,
          "velocity": 0.7874015748031497,
          "duration": 0.1875
        },
        {
          "name": "C4",
          "midi": 60,
          "time": 70.5,
          "velocity": 0.7874015748031497,
          "duration": 0.1875
        },
        {
          "name": "A3",
          "midi": 57,
          "time": 70.6875,
          "velocity": 0.7874015748031497,
          "duration": 0.1875
        },
        {
          "name": "F#3",
          "midi": 54,
          "time": 70.875,
          "velocity": 0.7874015748031497,
          "duration": 0.1875
        },
        {
          "name": "E3",
          "midi": 52,
          "time": 71.0625,
          "velocity": 0.7874015748031497,
          "duration": 0.1875
        },
        {
          "name": "D3",
          "midi": 50,
          "time": 71.25,
          "velocity": 0.7874015748031497,
          "duration": 0.1875
        },
        {
          "name": "A2",
          "midi": 45,
          "time": 71.4375,
          "velocity": 0.7874015748031497,
          "duration": 0.1875
        },
        {
          "name": "B2",
          "midi": 47,
          "time": 71.625,
          "velocity": 0.7874015748031497,
          "duration": 0.1875
        },
        {
          "name": "C3",
          "midi": 48,
          "time": 71.8125,
          "velocity": 0.7874015748031497,
          "duration": 0.1875
        },
        {
          "name": "D2",
          "midi": 38,
          "time": 72,
          "velocity": 0.7874015748031497,
          "duration": 0.1875
        },
        {
          "name": "A2",
          "midi": 45,
          "time": 72.1875,
          "velocity": 0.7874015748031497,
          "duration": 0.1875
        },
        {
          "name": "D3",
          "midi": 50,
          "time": 72.375,
          "velocity": 0.7874015748031497,
          "duration": 0.1875
        },
        {
          "name": "F#3",
          "midi": 54,
          "time": 72.5625,
          "velocity": 0.7874015748031497,
          "duration": 0.1875
        },
        {
          "name": "A3",
          "midi": 57,
          "time": 72.75,
          "velocity": 0.7874015748031497,
          "duration": 0.1875
        },
        {
          "name": "B3",
          "midi": 59,
          "time": 72.9375,
          "velocity": 0.7874015748031497,
          "duration": 0.1875
        },
        {
          "name": "C4",
          "midi": 60,
          "time": 73.125,
          "velocity": 0.7874015748031497,
          "duration": 0.1875
        },
        {
          "name": "A3",
          "midi": 57,
          "time": 73.3125,
          "velocity": 0.7874015748031497,
          "duration": 0.1875
        },
        {
          "name": "B3",
          "midi": 59,
          "time": 73.5,
          "velocity": 0.7874015748031497,
          "duration": 0.1875
        },
        {
          "name": "G3",
          "midi": 55,
          "time": 73.6875,
          "velocity": 0.7874015748031497,
          "duration": 0.1875
        },
        {
          "name": "D3",
          "midi": 50,
          "time": 73.875,
          "velocity": 0.7874015748031497,
          "duration": 0.1875
        },
        {
          "name": "C3",
          "midi": 48,
          "time": 74.0625,
          "velocity": 0.7874015748031497,
          "duration": 0.1875
        },
        {
          "name": "B2",
          "midi": 47,
          "time": 74.25,
          "velocity": 0.7874015748031497,
          "duration": 0.1875
        },
        {
          "name": "G2",
          "midi": 43,
          "time": 74.4375,
          "velocity": 0.7874015748031497,
          "duration": 0.1875
        },
        {
          "name": "A2",
          "midi": 45,
          "time": 74.625,
          "velocity": 0.7874015748031497,
          "duration": 0.1875
        },
        {
          "name": "B2",
          "midi": 47,
          "time": 74.8125,
          "velocity": 0.7874015748031497,
          "duration": 0.1875
        },
        {
          "name": "D2",
          "midi": 38,
          "time": 75,
          "velocity": 0.7874015748031497,
          "duration": 0.1875
        },
        {
          "name": "G2",
          "midi": 43,
          "time": 75.1875,
          "velocity": 0.7874015748031497,
          "duration": 0.1875
        },
        {
          "name": "B2",
          "midi": 47,
          "time": 75.375,
          "velocity": 0.7874015748031497,
          "duration": 0.1875
        },
        {
          "name": "D3",
          "midi": 50,
          "time": 75.5625,
          "velocity": 0.7874015748031497,
          "duration": 0.1875
        },
        {
          "name": "G3",
          "midi": 55,
          "time": 75.75,
          "velocity": 0.7874015748031497,
          "duration": 0.1875
        },
        {
          "name": "A3",
          "midi": 57,
          "time": 75.9375,
          "velocity": 0.7874015748031497,
          "duration": 0.1875
        },
        {
          "name": "B3",
          "midi": 59,
          "time": 76.125,
          "velocity": 0.7874015748031497,
          "duration": 0.1875
        },
        {
          "name": "G3",
          "midi": 55,
          "time": 76.3125,
          "velocity": 0.7874015748031497,
          "duration": 0.1875
        },
        {
          "name": "C#4",
          "midi": 61,
          "time": 76.5,
          "velocity": 0.7874015748031497,
          "duration": 0.1875
        },
        {
          "name": "B3",
          "midi": 59,
          "time": 76.6875,
          "velocity": 0.7874015748031497,
          "duration": 0.1875
        },
        {
          "name": "A3",
          "midi": 57,
          "time": 76.875,
          "velocity": 0.7874015748031497,
          "duration": 0.1875
        },
        {
          "name": "A#3",
          "midi": 58,
          "time": 77.0625,
          "velocity": 0.7874015748031497,
          "duration": 0.1875
        },
        {
          "name": "A#3",
          "midi": 58,
          "time": 77.25,
          "velocity": 0.7874015748031497,
          "duration": 0.1875
        },
        {
          "name": "A3",
          "midi": 57,
          "time": 77.4375,
          "velocity": 0.7874015748031497,
          "duration": 0.1875
        },
        {
          "name": "G#3",
          "midi": 56,
          "time": 77.625,
          "velocity": 0.7874015748031497,
          "duration": 0.1875
        },
        {
          "name": "A3",
          "midi": 57,
          "time": 77.8125,
          "velocity": 0.7874015748031497,
          "duration": 0.1875
        },
        {
          "name": "A3",
          "midi": 57,
          "time": 78,
          "velocity": 0.7874015748031497,
          "duration": 0.1875
        },
        {
          "name": "G3",
          "midi": 55,
          "time": 78.1875,
          "velocity": 0.7874015748031497,
          "duration": 0.1875
        },
        {
          "name": "F#3",
          "midi": 54,
          "time": 78.375,
          "velocity": 0.7874015748031497,
          "duration": 0.1875
        },
        {
          "name": "G3",
          "midi": 55,
          "time": 78.5625,
          "velocity": 0.7874015748031497,
          "duration": 0.1875
        },
        {
          "name": "G3",
          "midi": 55,
          "time": 78.75,
          "velocity": 0.7874015748031497,
          "duration": 0.1875
        },
        {
          "name": "E3",
          "midi": 52,
          "time": 78.9375,
          "velocity": 0.7874015748031497,
          "duration": 0.1875
        },
        {
          "name": "C#3",
          "midi": 49,
          "time": 79.125,
          "velocity": 0.7874015748031497,
          "duration": 0.1875
        },
        {
          "name": "B2",
          "midi": 47,
          "time": 79.3125,
          "velocity": 0.7874015748031497,
          "duration": 0.1875
        },
        {
          "name": "A2",
          "midi": 45,
          "time": 79.5,
          "velocity": 0.7874015748031497,
          "duration": 0.1875
        },
        {
          "name": "C#3",
          "midi": 49,
          "time": 79.6875,
          "velocity": 0.7874015748031497,
          "duration": 0.1875
        },
        {
          "name": "E3",
          "midi": 52,
          "time": 79.875,
          "velocity": 0.7874015748031497,
          "duration": 0.1875
        },
        {
          "name": "G3",
          "midi": 55,
          "time": 80.0625,
          "velocity": 0.7874015748031497,
          "duration": 0.1875
        },
        {
          "name": "A3",
          "midi": 57,
          "time": 80.25,
          "velocity": 0.7874015748031497,
          "duration": 0.1875
        },
        {
          "name": "C#4",
          "midi": 61,
          "time": 80.4375,
          "velocity": 0.7874015748031497,
          "duration": 0.1875
        },
        {
          "name": "D4",
          "midi": 62,
          "time": 80.625,
          "velocity": 0.7874015748031497,
          "duration": 0.1875
        },
        {
          "name": "C#4",
          "midi": 61,
          "time": 80.8125,
          "velocity": 0.7874015748031497,
          "duration": 0.1875
        },
        {
          "name": "D4",
          "midi": 62,
          "time": 81,
          "velocity": 0.7874015748031497,
          "duration": 0.1875
        },
        {
          "name": "A3",
          "midi": 57,
          "time": 81.1875,
          "velocity": 0.7874015748031497,
          "duration": 0.1875
        },
        {
          "name": "F#3",
          "midi": 54,
          "time": 81.375,
          "velocity": 0.7874015748031497,
          "duration": 0.1875
        },
        {
          "name": "E3",
          "midi": 52,
          "time": 81.5625,
          "velocity": 0.7874015748031497,
          "duration": 0.1875
        },
        {
          "name": "F#3",
          "midi": 54,
          "time": 81.75,
          "velocity": 0.7874015748031497,
          "duration": 0.1875
        },
        {
          "name": "A3",
          "midi": 57,
          "time": 81.9375,
          "velocity": 0.7874015748031497,
          "duration": 0.1875
        },
        {
          "name": "D3",
          "midi": 50,
          "time": 82.125,
          "velocity": 0.7874015748031497,
          "duration": 0.1875
        },
        {
          "name": "F#3",
          "midi": 54,
          "time": 82.3125,
          "velocity": 0.7874015748031497,
          "duration": 0.1875
        },
        {
          "name": "A2",
          "midi": 45,
          "time": 82.5,
          "velocity": 0.7874015748031497,
          "duration": 0.1875
        },
        {
          "name": "D3",
          "midi": 50,
          "time": 82.6875,
          "velocity": 0.7874015748031497,
          "duration": 0.1875
        },
        {
          "name": "C#3",
          "midi": 49,
          "time": 82.875,
          "velocity": 0.7874015748031497,
          "duration": 0.1875
        },
        {
          "name": "B2",
          "midi": 47,
          "time": 83.0625,
          "velocity": 0.7874015748031497,
          "duration": 0.1875
        },
        {
          "name": "A2",
          "midi": 45,
          "time": 83.25,
          "velocity": 0.7874015748031497,
          "duration": 0.1875
        },
        {
          "name": "G2",
          "midi": 43,
          "time": 83.4375,
          "velocity": 0.7874015748031497,
          "duration": 0.1875
        },
        {
          "name": "F#2",
          "midi": 42,
          "time": 83.625,
          "velocity": 0.7874015748031497,
          "duration": 0.1875
        },
        {
          "name": "E2",
          "midi": 40,
          "time": 83.8125,
          "velocity": 0.7874015748031497,
          "duration": 0.1875
        },
        {
          "name": "D2",
          "midi": 38,
          "time": 84,
          "velocity": 0.7874015748031497,
          "duration": 0.375
        },
        {
          "name": "C4",
          "midi": 60,
          "time": 84.375,
          "velocity": 0.7874015748031497,
          "duration": 0.1875
        },
        {
          "name": "B3",
          "midi": 59,
          "time": 84.5625,
          "velocity": 0.7874015748031497,
          "duration": 0.1875
        },
        {
          "name": "A3",
          "midi": 57,
          "time": 84.75,
          "velocity": 0.7874015748031497,
          "duration": 0.1875
        },
        {
          "name": "G3",
          "midi": 55,
          "time": 84.9375,
          "velocity": 0.7874015748031497,
          "duration": 0.1875
        },
        {
          "name": "F#3",
          "midi": 54,
          "time": 85.125,
          "velocity": 0.7874015748031497,
          "duration": 0.1875
        },
        {
          "name": "E3",
          "midi": 52,
          "time": 85.3125,
          "velocity": 0.7874015748031497,
          "duration": 0.1875
        },
        {
          "name": "D3",
          "midi": 50,
          "time": 85.5,
          "velocity": 0.7874015748031497,
          "duration": 0.1875
        },
        {
          "name": "C4",
          "midi": 60,
          "time": 85.6875,
          "velocity": 0.7874015748031497,
          "duration": 0.1875
        },
        {
          "name": "B3",
          "midi": 59,
          "time": 85.875,
          "velocity": 0.7874015748031497,
          "duration": 0.1875
        },
        {
          "name": "A3",
          "midi": 57,
          "time": 86.0625,
          "velocity": 0.7874015748031497,
          "duration": 0.1875
        },
        {
          "name": "G3",
          "midi": 55,
          "time": 86.25,
          "velocity": 0.7874015748031497,
          "duration": 0.1875
        },
        {
          "name": "F#3",
          "midi": 54,
          "time": 86.4375,
          "velocity": 0.7874015748031497,
          "duration": 0.1875
        },
        {
          "name": "E3",
          "midi": 52,
          "time": 86.625,
          "velocity": 0.7874015748031497,
          "duration": 0.1875
        },
        {
          "name": "D3",
          "midi": 50,
          "time": 86.8125,
          "velocity": 0.7874015748031497,
          "duration": 0.1875
        },
        {
          "name": "C3",
          "midi": 48,
          "time": 87,
          "velocity": 0.7874015748031497,
          "duration": 0.1875
        },
        {
          "name": "B3",
          "midi": 59,
          "time": 87.1875,
          "velocity": 0.7874015748031497,
          "duration": 0.1875
        },
        {
          "name": "A3",
          "midi": 57,
          "time": 87.375,
          "velocity": 0.7874015748031497,
          "duration": 0.1875
        },
        {
          "name": "G3",
          "midi": 55,
          "time": 87.5625,
          "velocity": 0.7874015748031497,
          "duration": 0.1875
        },
        {
          "name": "F#3",
          "midi": 54,
          "time": 87.75,
          "velocity": 0.7874015748031497,
          "duration": 0.1875
        },
        {
          "name": "E3",
          "midi": 52,
          "time": 87.9375,
          "velocity": 0.7874015748031497,
          "duration": 0.1875
        },
        {
          "name": "D3",
          "midi": 50,
          "time": 88.125,
          "velocity": 0.7874015748031497,
          "duration": 0.1875
        },
        {
          "name": "C3",
          "midi": 48,
          "time": 88.3125,
          "velocity": 0.7874015748031497,
          "duration": 0.1875
        },
        {
          "name": "B2",
          "midi": 47,
          "time": 88.5,
          "velocity": 0.7874015748031497,
          "duration": 0.1875
        },
        {
          "name": "A3",
          "midi": 57,
          "time": 88.6875,
          "velocity": 0.7874015748031497,
          "duration": 0.1875
        },
        {
          "name": "G3",
          "midi": 55,
          "time": 88.875,
          "velocity": 0.7874015748031497,
          "duration": 0.1875
        },
        {
          "name": "F#3",
          "midi": 54,
          "time": 89.0625,
          "velocity": 0.7874015748031497,
          "duration": 0.1875
        },
        {
          "name": "E3",
          "midi": 52,
          "time": 89.25,
          "velocity": 0.7874015748031497,
          "duration": 0.1875
        },
        {
          "name": "D3",
          "midi": 50,
          "time": 89.4375,
          "velocity": 0.7874015748031497,
          "duration": 0.1875
        },
        {
          "name": "C3",
          "midi": 48,
          "time": 89.625,
          "velocity": 0.7874015748031497,
          "duration": 0.1875
        },
        {
          "name": "B2",
          "midi": 47,
          "time": 89.8125,
          "velocity": 0.7874015748031497,
          "duration": 0.1875
        },
        {
          "name": "A2",
          "midi": 45,
          "time": 90,
          "velocity": 0.7874015748031497,
          "duration": 0.1875
        },
        {
          "name": "G3",
          "midi": 55,
          "time": 90.1875,
          "velocity": 0.7874015748031497,
          "duration": 0.1875
        },
        {
          "name": "F#3",
          "midi": 54,
          "time": 90.375,
          "velocity": 0.7874015748031497,
          "duration": 0.1875
        },
        {
          "name": "E3",
          "midi": 52,
          "time": 90.5625,
          "velocity": 0.7874015748031497,
          "duration": 0.1875
        },
        {
          "name": "F#3",
          "midi": 54,
          "time": 90.75,
          "velocity": 0.7874015748031497,
          "duration": 0.1875
        },
        {
          "name": "D3",
          "midi": 50,
          "time": 91.125,
          "velocity": 0.7874015748031497,
          "duration": 0.1875
        },
        {
          "name": "E3",
          "midi": 52,
          "time": 91.5,
          "velocity": 0.7874015748031497,
          "duration": 0.1875
        },
        {
          "name": "F#3",
          "midi": 54,
          "time": 91.875,
          "velocity": 0.7874015748031497,
          "duration": 0.1875
        },
        {
          "name": "G3",
          "midi": 55,
          "time": 92.25,
          "velocity": 0.7874015748031497,
          "duration": 0.1875
        },
        {
          "name": "E3",
          "midi": 52,
          "time": 92.625,
          "velocity": 0.7874015748031497,
          "duration": 0.1875
        },
        {
          "name": "F#3",
          "midi": 54,
          "time": 93,
          "velocity": 0.7874015748031497,
          "duration": 0.1875
        },
        {
          "name": "D3",
          "midi": 50,
          "time": 93.375,
          "velocity": 0.7874015748031497,
          "duration": 0.1875
        },
        {
          "name": "G3",
          "midi": 55,
          "time": 93.75,
          "velocity": 0.7874015748031497,
          "duration": 0.1875
        },
        {
          "name": "E3",
          "midi": 52,
          "time": 94.125,
          "velocity": 0.7874015748031497,
          "duration": 0.1875
        },
        {
          "name": "F#3",
          "midi": 54,
          "time": 94.5,
          "velocity": 0.7874015748031497,
          "duration": 0.1875
        },
        {
          "name": "D3",
          "midi": 50,
          "time": 94.875,
          "velocity": 0.7874015748031497,
          "duration": 0.1875
        },
        {
          "name": "G3",
          "midi": 55,
          "time": 95.25,
          "velocity": 0.7874015748031497,
          "duration": 0.1875
        },
        {
          "name": "E3",
          "midi": 52,
          "time": 95.625,
          "velocity": 0.7874015748031497,
          "duration": 0.1875
        },
        {
          "name": "F#3",
          "midi": 54,
          "time": 96,
          "velocity": 0.7874015748031497,
          "duration": 0.1875
        },
        {
          "name": "D3",
          "midi": 50,
          "time": 96.375,
          "velocity": 0.7874015748031497,
          "duration": 0.1875
        },
        {
          "name": "E3",
          "midi": 52,
          "time": 96.75,
          "velocity": 0.7874015748031497,
          "duration": 0.1875
        },
        {
          "name": "F#3",
          "midi": 54,
          "time": 97.125,
          "velocity": 0.7874015748031497,
          "duration": 0.1875
        },
        {
          "name": "G3",
          "midi": 55,
          "time": 97.5,
          "velocity": 0.7874015748031497,
          "duration": 0.1875
        },
        {
          "name": "A3",
          "midi": 57,
          "time": 97.875,
          "velocity": 0.7874015748031497,
          "duration": 0.1875
        },
        {
          "name": "B3",
          "midi": 59,
          "time": 98.25,
          "velocity": 0.7874015748031497,
          "duration": 0.1875
        },
        {
          "name": "D3",
          "midi": 50,
          "time": 98.625,
          "velocity": 0.7874015748031497,
          "duration": 0.1875
        },
        {
          "name": "A3",
          "midi": 57,
          "time": 99,
          "velocity": 0.7874015748031497,
          "duration": 0.1875
        },
        {
          "name": "B3",
          "midi": 59,
          "time": 99.375,
          "velocity": 0.7874015748031497,
          "duration": 0.1875
        },
        {
          "name": "C4",
          "midi": 60,
          "time": 99.75,
          "velocity": 0.7874015748031497,
          "duration": 0.1875
        },
        {
          "name": "D3",
          "midi": 50,
          "time": 100.125,
          "velocity": 0.7874015748031497,
          "duration": 0.1875
        },
        {
          "name": "B3",
          "midi": 59,
          "time": 100.5,
          "velocity": 0.7874015748031497,
          "duration": 0.1875
        },
        {
          "name": "C4",
          "midi": 60,
          "time": 100.875,
          "velocity": 0.7874015748031497,
          "duration": 0.1875
        },
        {
          "name": "D4",
          "midi": 62,
          "time": 101.25,
          "velocity": 0.7874015748031497,
          "duration": 0.1875
        },
        {
          "name": "B3",
          "midi": 59,
          "time": 101.625,
          "velocity": 0.7874015748031497,
          "duration": 0.1875
        },
        {
          "name": "C4",
          "midi": 60,
          "time": 102,
          "velocity": 0.7874015748031497,
          "duration": 0.1875
        },
        {
          "name": "B3",
          "midi": 59,
          "time": 102.375,
          "velocity": 0.7874015748031497,
          "duration": 0.1875
        },
        {
          "name": "C4",
          "midi": 60,
          "time": 102.75,
          "velocity": 0.7874015748031497,
          "duration": 0.1875
        },
        {
          "name": "A3",
          "midi": 57,
          "time": 103.125,
          "velocity": 0.7874015748031497,
          "duration": 0.1875
        },
        {
          "name": "B3",
          "midi": 59,
          "time": 103.5,
          "velocity": 0.7874015748031497,
          "duration": 0.1875
        },
        {
          "name": "A3",
          "midi": 57,
          "time": 103.875,
          "velocity": 0.7874015748031497,
          "duration": 0.1875
        },
        {
          "name": "B3",
          "midi": 59,
          "time": 104.25,
          "velocity": 0.7874015748031497,
          "duration": 0.1875
        },
        {
          "name": "G3",
          "midi": 55,
          "time": 104.625,
          "velocity": 0.7874015748031497,
          "duration": 0.1875
        },
        {
          "name": "A3",
          "midi": 57,
          "time": 105,
          "velocity": 0.7874015748031497,
          "duration": 0.1875
        },
        {
          "name": "G3",
          "midi": 55,
          "time": 105.375,
          "velocity": 0.7874015748031497,
          "duration": 0.1875
        },
        {
          "name": "A3",
          "midi": 57,
          "time": 105.75,
          "velocity": 0.7874015748031497,
          "duration": 0.1875
        },
        {
          "name": "F#3",
          "midi": 54,
          "time": 106.125,
          "velocity": 0.7874015748031497,
          "duration": 0.1875
        },
        {
          "name": "G3",
          "midi": 55,
          "time": 106.5,
          "velocity": 0.7874015748031497,
          "duration": 0.1875
        },
        {
          "name": "F#3",
          "midi": 54,
          "time": 106.875,
          "velocity": 0.7874015748031497,
          "duration": 0.1875
        },
        {
          "name": "G3",
          "midi": 55,
          "time": 107.25,
          "velocity": 0.7874015748031497,
          "duration": 0.1875
        },
        {
          "name": "E3",
          "midi": 52,
          "time": 107.625,
          "velocity": 0.7874015748031497,
          "duration": 0.1875
        },
        {
          "name": "F#3",
          "midi": 54,
          "time": 108,
          "velocity": 0.7874015748031497,
          "duration": 0.1875
        },
        {
          "name": "D3",
          "midi": 50,
          "time": 108.375,
          "velocity": 0.7874015748031497,
          "duration": 0.1875
        },
        {
          "name": "E3",
          "midi": 52,
          "time": 108.5625,
          "velocity": 0.7874015748031497,
          "duration": 0.1875
        },
        {
          "name": "F3",
          "midi": 53,
          "time": 108.75,
          "velocity": 0.7874015748031497,
          "duration": 0.1875
        },
        {
          "name": "F#3",
          "midi": 54,
          "time": 109.125,
          "velocity": 0.7874015748031497,
          "duration": 0.1875
        },
        {
          "name": "G3",
          "midi": 55,
          "time": 109.5,
          "velocity": 0.7874015748031497,
          "duration": 0.1875
        },
        {
          "name": "G#3",
          "midi": 56,
          "time": 109.875,
          "velocity": 0.7874015748031497,
          "duration": 0.1875
        },
        {
          "name": "A3",
          "midi": 57,
          "time": 110.25,
          "velocity": 0.7874015748031497,
          "duration": 0.1875
        },
        {
          "name": "A#3",
          "midi": 58,
          "time": 110.625,
          "velocity": 0.7874015748031497,
          "duration": 0.1875
        },
        {
          "name": "B3",
          "midi": 59,
          "time": 111,
          "velocity": 0.7874015748031497,
          "duration": 0.1875
        },
        {
          "name": "C4",
          "midi": 60,
          "time": 111.375,
          "velocity": 0.7874015748031497,
          "duration": 0.1875
        },
        {
          "name": "C#4",
          "midi": 61,
          "time": 111.75,
          "velocity": 0.7874015748031497,
          "duration": 0.1875
        },
        {
          "name": "D4",
          "midi": 62,
          "time": 112.125,
          "velocity": 0.7874015748031497,
          "duration": 0.1875
        },
        {
          "name": "D#4",
          "midi": 63,
          "time": 112.5,
          "velocity": 0.7874015748031497,
          "duration": 0.1875
        },
        {
          "name": "E4",
          "midi": 64,
          "time": 112.875,
          "velocity": 0.7874015748031497,
          "duration": 0.1875
        },
        {
          "name": "F4",
          "midi": 65,
          "time": 113.25,
          "velocity": 0.7874015748031497,
          "duration": 0.1875
        },
        {
          "name": "F#4",
          "midi": 66,
          "time": 113.625,
          "velocity": 0.7874015748031497,
          "duration": 0.1875
        },
        {
          "name": "G4",
          "midi": 67,
          "time": 114,
          "velocity": 0.7874015748031497,
          "duration": 0.1875
        },
        {
          "name": "B3",
          "midi": 59,
          "time": 114.1875,
          "velocity": 0.7874015748031497,
          "duration": 0.1875
        },
        {
          "name": "D3",
          "midi": 50,
          "time": 114.375,
          "velocity": 0.7874015748031497,
          "duration": 0.1875
        },
        {
          "name": "B3",
          "midi": 59,
          "time": 114.5625,
          "velocity": 0.7874015748031497,
          "duration": 0.1875
        },
        {
          "name": "G4",
          "midi": 67,
          "time": 114.75,
          "velocity": 0.7874015748031497,
          "duration": 0.1875
        },
        {
          "name": "B3",
          "midi": 59,
          "time": 114.9375,
          "velocity": 0.7874015748031497,
          "duration": 0.1875
        },
        {
          "name": "G4",
          "midi": 67,
          "time": 115.125,
          "velocity": 0.7874015748031497,
          "duration": 0.1875
        },
        {
          "name": "B3",
          "midi": 59,
          "time": 115.3125,
          "velocity": 0.7874015748031497,
          "duration": 0.1875
        },
        {
          "name": "G4",
          "midi": 67,
          "time": 115.5,
          "velocity": 0.7874015748031497,
          "duration": 0.1875
        },
        {
          "name": "B3",
          "midi": 59,
          "time": 115.6875,
          "velocity": 0.7874015748031497,
          "duration": 0.1875
        },
        {
          "name": "D3",
          "midi": 50,
          "time": 115.875,
          "velocity": 0.7874015748031497,
          "duration": 0.1875
        },
        {
          "name": "B3",
          "midi": 59,
          "time": 116.0625,
          "velocity": 0.7874015748031497,
          "duration": 0.1875
        },
        {
          "name": "G4",
          "midi": 67,
          "time": 116.25,
          "velocity": 0.7874015748031497,
          "duration": 0.1875
        },
        {
          "name": "B3",
          "midi": 59,
          "time": 116.4375,
          "velocity": 0.7874015748031497,
          "duration": 0.1875
        },
        {
          "name": "G4",
          "midi": 67,
          "time": 116.625,
          "velocity": 0.7874015748031497,
          "duration": 0.1875
        },
        {
          "name": "B3",
          "midi": 59,
          "time": 116.8125,
          "velocity": 0.7874015748031497,
          "duration": 0.1875
        },
        {
          "name": "G4",
          "midi": 67,
          "time": 117,
          "velocity": 0.7874015748031497,
          "duration": 0.1875
        },
        {
          "name": "A3",
          "midi": 57,
          "time": 117.1875,
          "velocity": 0.7874015748031497,
          "duration": 0.1875
        },
        {
          "name": "D3",
          "midi": 50,
          "time": 117.375,
          "velocity": 0.7874015748031497,
          "duration": 0.1875
        },
        {
          "name": "A3",
          "midi": 57,
          "time": 117.5625,
          "velocity": 0.7874015748031497,
          "duration": 0.1875
        },
        {
          "name": "G4",
          "midi": 67,
          "time": 117.75,
          "velocity": 0.7874015748031497,
          "duration": 0.1875
        },
        {
          "name": "A3",
          "midi": 57,
          "time": 117.9375,
          "velocity": 0.7874015748031497,
          "duration": 0.1875
        },
        {
          "name": "G4",
          "midi": 67,
          "time": 118.125,
          "velocity": 0.7874015748031497,
          "duration": 0.1875
        },
        {
          "name": "A3",
          "midi": 57,
          "time": 118.3125,
          "velocity": 0.7874015748031497,
          "duration": 0.1875
        },
        {
          "name": "G4",
          "midi": 67,
          "time": 118.5,
          "velocity": 0.7874015748031497,
          "duration": 0.1875
        },
        {
          "name": "A3",
          "midi": 57,
          "time": 118.6875,
          "velocity": 0.7874015748031497,
          "duration": 0.1875
        },
        {
          "name": "D3",
          "midi": 50,
          "time": 118.875,
          "velocity": 0.7874015748031497,
          "duration": 0.1875
        },
        {
          "name": "A3",
          "midi": 57,
          "time": 119.0625,
          "velocity": 0.7874015748031497,
          "duration": 0.1875
        },
        {
          "name": "G4",
          "midi": 67,
          "time": 119.25,
          "velocity": 0.7874015748031497,
          "duration": 0.1875
        },
        {
          "name": "A3",
          "midi": 57,
          "time": 119.4375,
          "velocity": 0.7874015748031497,
          "duration": 0.1875
        },
        {
          "name": "G4",
          "midi": 67,
          "time": 119.625,
          "velocity": 0.7874015748031497,
          "duration": 0.1875
        },
        {
          "name": "A3",
          "midi": 57,
          "time": 119.8125,
          "velocity": 0.7874015748031497,
          "duration": 0.1875
        },
        {
          "name": "F#4",
          "midi": 66,
          "time": 120,
          "velocity": 0.7874015748031497,
          "duration": 0.1875
        },
        {
          "name": "C4",
          "midi": 60,
          "time": 120.1875,
          "velocity": 0.7874015748031497,
          "duration": 0.1875
        },
        {
          "name": "D3",
          "midi": 50,
          "time": 120.375,
          "velocity": 0.7874015748031497,
          "duration": 0.1875
        },
        {
          "name": "C4",
          "midi": 60,
          "time": 120.5625,
          "velocity": 0.7874015748031497,
          "duration": 0.1875
        },
        {
          "name": "F#4",
          "midi": 66,
          "time": 120.75,
          "velocity": 0.7874015748031497,
          "duration": 0.1875
        },
        {
          "name": "C4",
          "midi": 60,
          "time": 120.9375,
          "velocity": 0.7874015748031497,
          "duration": 0.1875
        },
        {
          "name": "F#4",
          "midi": 66,
          "time": 121.125,
          "velocity": 0.7874015748031497,
          "duration": 0.1875
        },
        {
          "name": "C4",
          "midi": 60,
          "time": 121.3125,
          "velocity": 0.7874015748031497,
          "duration": 0.1875
        },
        {
          "name": "F#4",
          "midi": 66,
          "time": 121.5,
          "velocity": 0.7874015748031497,
          "duration": 0.1875
        },
        {
          "name": "C4",
          "midi": 60,
          "time": 121.6875,
          "velocity": 0.7874015748031497,
          "duration": 0.1875
        },
        {
          "name": "D3",
          "midi": 50,
          "time": 121.875,
          "velocity": 0.7874015748031497,
          "duration": 0.1875
        },
        {
          "name": "C4",
          "midi": 60,
          "time": 122.0625,
          "velocity": 0.7874015748031497,
          "duration": 0.1875
        },
        {
          "name": "F#4",
          "midi": 66,
          "time": 122.25,
          "velocity": 0.7874015748031497,
          "duration": 0.1875
        },
        {
          "name": "C4",
          "midi": 60,
          "time": 122.4375,
          "velocity": 0.7874015748031497,
          "duration": 0.1875
        },
        {
          "name": "F#4",
          "midi": 66,
          "time": 122.625,
          "velocity": 0.7874015748031497,
          "duration": 0.1875
        },
        {
          "name": "C4",
          "midi": 60,
          "time": 122.8125,
          "velocity": 0.7874015748031497,
          "duration": 0.1875
        },
        {
          "name": "G4",
          "midi": 67,
          "time": 123,
          "velocity": 0.7874015748031497,
          "duration": 3
        }
      ],
      "controlChanges": {
        "7": [
          {
            "number": 7,
            "time": 0,
            "value": 0.7874015748031497
          }
        ],
        "10": [
          {
            "number": 10,
            "time": 0,
            "value": 0.5039370078740157
          }
        ]
      },
      "instrumentNumber": 42
    },
    {
      "name": "--------------------------------------",
      "notes": [
        {
          "name": "A3",
          "midi": 57,
          "time": 90.9375,
          "velocity": 0.6692913385826772,
          "duration": 0.1875
        },
        {
          "name": "A3",
          "midi": 57,
          "time": 91.3125,
          "velocity": 0.6692913385826772,
          "duration": 0.1875
        },
        {
          "name": "A3",
          "midi": 57,
          "time": 91.6875,
          "velocity": 0.6692913385826772,
          "duration": 0.1875
        },
        {
          "name": "A3",
          "midi": 57,
          "time": 92.0625,
          "velocity": 0.6692913385826772,
          "duration": 0.1875
        },
        {
          "name": "A3",
          "midi": 57,
          "time": 92.4375,
          "velocity": 0.6692913385826772,
          "duration": 0.1875
        },
        {
          "name": "A3",
          "midi": 57,
          "time": 92.8125,
          "velocity": 0.6692913385826772,
          "duration": 0.1875
        },
        {
          "name": "A3",
          "midi": 57,
          "time": 93.1875,
          "velocity": 0.6692913385826772,
          "duration": 0.1875
        },
        {
          "name": "A3",
          "midi": 57,
          "time": 93.5625,
          "velocity": 0.6692913385826772,
          "duration": 0.1875
        },
        {
          "name": "A3",
          "midi": 57,
          "time": 93.9375,
          "velocity": 0.6692913385826772,
          "duration": 0.1875
        },
        {
          "name": "A3",
          "midi": 57,
          "time": 94.3125,
          "velocity": 0.6692913385826772,
          "duration": 0.1875
        },
        {
          "name": "A3",
          "midi": 57,
          "time": 94.6875,
          "velocity": 0.6692913385826772,
          "duration": 0.1875
        },
        {
          "name": "A3",
          "midi": 57,
          "time": 95.0625,
          "velocity": 0.6692913385826772,
          "duration": 0.1875
        },
        {
          "name": "A3",
          "midi": 57,
          "time": 95.4375,
          "velocity": 0.6692913385826772,
          "duration": 0.1875
        },
        {
          "name": "A3",
          "midi": 57,
          "time": 95.8125,
          "velocity": 0.6692913385826772,
          "duration": 0.1875
        },
        {
          "name": "A3",
          "midi": 57,
          "time": 96.1875,
          "velocity": 0.6692913385826772,
          "duration": 0.1875
        },
        {
          "name": "A3",
          "midi": 57,
          "time": 96.5625,
          "velocity": 0.6692913385826772,
          "duration": 0.1875
        },
        {
          "name": "A3",
          "midi": 57,
          "time": 96.9375,
          "velocity": 0.6692913385826772,
          "duration": 0.1875
        },
        {
          "name": "A3",
          "midi": 57,
          "time": 97.3125,
          "velocity": 0.6692913385826772,
          "duration": 0.1875
        },
        {
          "name": "A3",
          "midi": 57,
          "time": 97.6875,
          "velocity": 0.6692913385826772,
          "duration": 0.1875
        },
        {
          "name": "A3",
          "midi": 57,
          "time": 98.0625,
          "velocity": 0.6692913385826772,
          "duration": 0.1875
        },
        {
          "name": "A3",
          "midi": 57,
          "time": 98.4375,
          "velocity": 0.6692913385826772,
          "duration": 0.1875
        },
        {
          "name": "A3",
          "midi": 57,
          "time": 98.8125,
          "velocity": 0.6692913385826772,
          "duration": 0.1875
        },
        {
          "name": "A3",
          "midi": 57,
          "time": 99.1875,
          "velocity": 0.6692913385826772,
          "duration": 0.1875
        },
        {
          "name": "A3",
          "midi": 57,
          "time": 99.5625,
          "velocity": 0.6692913385826772,
          "duration": 0.1875
        },
        {
          "name": "A3",
          "midi": 57,
          "time": 99.9375,
          "velocity": 0.6692913385826772,
          "duration": 0.1875
        },
        {
          "name": "A3",
          "midi": 57,
          "time": 100.3125,
          "velocity": 0.6692913385826772,
          "duration": 0.1875
        },
        {
          "name": "A3",
          "midi": 57,
          "time": 100.6875,
          "velocity": 0.6692913385826772,
          "duration": 0.1875
        },
        {
          "name": "A3",
          "midi": 57,
          "time": 101.0625,
          "velocity": 0.6692913385826772,
          "duration": 0.1875
        },
        {
          "name": "A3",
          "midi": 57,
          "time": 101.4375,
          "velocity": 0.6692913385826772,
          "duration": 0.1875
        },
        {
          "name": "A3",
          "midi": 57,
          "time": 101.8125,
          "velocity": 0.6692913385826772,
          "duration": 0.1875
        },
        {
          "name": "A3",
          "midi": 57,
          "time": 102.1875,
          "velocity": 0.6692913385826772,
          "duration": 0.1875
        },
        {
          "name": "A3",
          "midi": 57,
          "time": 102.5625,
          "velocity": 0.6692913385826772,
          "duration": 0.1875
        },
        {
          "name": "A3",
          "midi": 57,
          "time": 102.9375,
          "velocity": 0.6692913385826772,
          "duration": 0.1875
        },
        {
          "name": "A3",
          "midi": 57,
          "time": 103.3125,
          "velocity": 0.6692913385826772,
          "duration": 0.1875
        },
        {
          "name": "A3",
          "midi": 57,
          "time": 103.6875,
          "velocity": 0.6692913385826772,
          "duration": 0.1875
        },
        {
          "name": "A3",
          "midi": 57,
          "time": 104.0625,
          "velocity": 0.6692913385826772,
          "duration": 0.1875
        },
        {
          "name": "A3",
          "midi": 57,
          "time": 104.4375,
          "velocity": 0.6692913385826772,
          "duration": 0.1875
        },
        {
          "name": "A3",
          "midi": 57,
          "time": 104.8125,
          "velocity": 0.6692913385826772,
          "duration": 0.1875
        },
        {
          "name": "A3",
          "midi": 57,
          "time": 105.1875,
          "velocity": 0.6692913385826772,
          "duration": 0.1875
        },
        {
          "name": "A3",
          "midi": 57,
          "time": 105.5625,
          "velocity": 0.6692913385826772,
          "duration": 0.1875
        },
        {
          "name": "A3",
          "midi": 57,
          "time": 105.9375,
          "velocity": 0.6692913385826772,
          "duration": 0.1875
        },
        {
          "name": "A3",
          "midi": 57,
          "time": 106.3125,
          "velocity": 0.6692913385826772,
          "duration": 0.1875
        },
        {
          "name": "A3",
          "midi": 57,
          "time": 106.6875,
          "velocity": 0.6692913385826772,
          "duration": 0.1875
        },
        {
          "name": "A3",
          "midi": 57,
          "time": 107.0625,
          "velocity": 0.6692913385826772,
          "duration": 0.1875
        },
        {
          "name": "A3",
          "midi": 57,
          "time": 107.4375,
          "velocity": 0.6692913385826772,
          "duration": 0.1875
        },
        {
          "name": "A3",
          "midi": 57,
          "time": 107.8125,
          "velocity": 0.6692913385826772,
          "duration": 0.1875
        },
        {
          "name": "A3",
          "midi": 57,
          "time": 108.1875,
          "velocity": 0.6692913385826772,
          "duration": 0.1875
        },
        {
          "name": "D3",
          "midi": 50,
          "time": 108.9375,
          "velocity": 0.7874015748031497,
          "duration": 0.1875
        },
        {
          "name": "D3",
          "midi": 50,
          "time": 109.3125,
          "velocity": 0.7874015748031497,
          "duration": 0.1875
        },
        {
          "name": "D3",
          "midi": 50,
          "time": 109.6875,
          "velocity": 0.7874015748031497,
          "duration": 0.1875
        },
        {
          "name": "D3",
          "midi": 50,
          "time": 110.0625,
          "velocity": 0.7874015748031497,
          "duration": 0.1875
        },
        {
          "name": "D3",
          "midi": 50,
          "time": 110.4375,
          "velocity": 0.7874015748031497,
          "duration": 0.1875
        },
        {
          "name": "D3",
          "midi": 50,
          "time": 110.8125,
          "velocity": 0.7874015748031497,
          "duration": 0.1875
        },
        {
          "name": "D3",
          "midi": 50,
          "time": 111.1875,
          "velocity": 0.7874015748031497,
          "duration": 0.1875
        },
        {
          "name": "D3",
          "midi": 50,
          "time": 111.5625,
          "velocity": 0.7874015748031497,
          "duration": 0.1875
        },
        {
          "name": "D3",
          "midi": 50,
          "time": 111.9375,
          "velocity": 0.7874015748031497,
          "duration": 0.1875
        },
        {
          "name": "D3",
          "midi": 50,
          "time": 112.3125,
          "velocity": 0.7874015748031497,
          "duration": 0.1875
        },
        {
          "name": "D3",
          "midi": 50,
          "time": 112.6875,
          "velocity": 0.7874015748031497,
          "duration": 0.1875
        },
        {
          "name": "D3",
          "midi": 50,
          "time": 113.0625,
          "velocity": 0.7874015748031497,
          "duration": 0.1875
        },
        {
          "name": "D3",
          "midi": 50,
          "time": 113.4375,
          "velocity": 0.7874015748031497,
          "duration": 0.1875
        },
        {
          "name": "D3",
          "midi": 50,
          "time": 113.8125,
          "velocity": 0.7874015748031497,
          "duration": 0.1875
        },
        {
          "name": "B3",
          "midi": 59,
          "time": 123,
          "velocity": 0.7874015748031497,
          "duration": 3
        }
      ],
      "controlChanges": {
        "7": [
          {
            "number": 7,
            "time": 0,
            "value": 0.7874015748031497
          }
        ],
        "10": [
          {
            "number": 10,
            "time": 0,
            "value": 0.5826771653543307
          }
        ]
      },
      "instrumentNumber": 42
    },
    {
      "name": "Johann Sebastian Bach  (1685-1750)",
      "notes": [
        {
          "name": "G2",
          "midi": 43,
          "time": 123,
          "velocity": 0.7874015748031497,
          "duration": 3
        }
      ],
      "controlChanges": {
        "7": [
          {
            "number": 7,
            "time": 0,
            "value": 0.7874015748031497
          }
        ],
        "10": [
          {
            "number": 10,
            "time": 0,
            "value": 0.4251968503937008
          }
        ]
      },
      "instrumentNumber": 42
    },
    {
      "name": "Six Suites for Solo Cello",
      "notes": [],
      "controlChanges": {},
      "instrumentNumber": -1
    },
    {
      "name": "--------------------------------------",
      "notes": [],
      "controlChanges": {},
      "instrumentNumber": -1
    },
    {
      "name": "Suite No. 1 in G major - BWV 1007",
      "notes": [],
      "controlChanges": {},
      "instrumentNumber": -1
    },
    {
      "name": "1st Movement: Prelude",
      "notes": [],
      "controlChanges": {},
      "instrumentNumber": -1
    },
    {
      "name": "--------------------------------------",
      "notes": [],
      "controlChanges": {},
      "instrumentNumber": -1
    },
    {
      "name": "Sequenced with Cakewalk Pro Audio by",
      "notes": [],
      "controlChanges": {},
      "instrumentNumber": -1
    },
    {
      "name": "David J. Grossman - dave@unpronounceable.com",
      "notes": [],
      "controlChanges": {},
      "instrumentNumber": -1
    },
    {
      "name": "This and other Bach MIDI files can be found at:",
      "notes": [],
      "controlChanges": {},
      "instrumentNumber": -1
    },
    {
      "name": "Dave's J.S. Bach Page",
      "notes": [],
      "controlChanges": {},
      "instrumentNumber": -1
    },
    {
      "name": "http://www.unpronounceable.com/bach",
      "notes": [],
      "controlChanges": {},
      "instrumentNumber": -1
    },
    {
      "name": "--------------------------------------",
      "notes": [],
      "controlChanges": {},
      "instrumentNumber": -1
    },
    {
      "name": "Original Filename: cs1-1pre.mid",
      "notes": [],
      "controlChanges": {},
      "instrumentNumber": -1
    },
    {
      "name": "Last Modified: February 22, 1997",
      "notes": [],
      "controlChanges": {},
      "instrumentNumber": -1
    }
  ]
}